M48
; DRILL file {KiCad 8.0.2} date 2024-05-23T12:11:18+0200
; FORMAT={-:-/ absolute / metric / decimal}
; #@! TF.CreationDate,2024-05-23T12:11:18+02:00
; #@! TF.GenerationSoftware,Kicad,Pcbnew,8.0.2
; #@! TF.FileFunction,Plated,1,2,PTH
FMAT,2
METRIC
; #@! TA.AperFunction,Plated,PTH,ViaDrill
T1C0.300
; #@! TA.AperFunction,Plated,PTH,ComponentDrill
T2C0.700
; #@! TA.AperFunction,Plated,PTH,ComponentDrill
T3C0.800
; #@! TA.AperFunction,Plated,PTH,ComponentDrill
T4C0.900
; #@! TA.AperFunction,Plated,PTH,ComponentDrill
T5C1.000
%
G90
G05
T1
X55.422Y-202.0
X55.422Y-276.0
X56.672Y-200.75
X56.672Y-274.75
X57.75Y-67.0
X57.922Y-199.5
X57.922Y-273.5
X59.172Y-198.25
X59.172Y-272.25
X60.422Y-197.0
X60.422Y-271.0
X61.0Y-121.5
X61.672Y-195.75
X61.672Y-269.75
X62.922Y-194.5
X62.922Y-268.5
X63.25Y-137.0
X63.25Y-146.0
X64.172Y-193.25
X64.172Y-267.25
X64.25Y-117.0
X64.422Y-108.25
X65.422Y-203.25
X65.422Y-277.25
X65.497Y-128.25
X66.077Y-110.175
X66.5Y-58.25
X66.672Y-125.0
X66.672Y-204.5
X66.672Y-278.5
X67.922Y-121.75
X67.922Y-205.75
X67.922Y-279.75
X68.617Y-112.75
X69.172Y-118.5
X69.172Y-207.0
X69.172Y-281.0
X70.341Y-115.669
X70.422Y-208.25
X70.422Y-282.25
X71.672Y-209.5
X71.672Y-283.5
X72.922Y-210.75
X72.922Y-284.75
X74.172Y-212.0
X74.172Y-286.0
X77.0Y-128.25
X77.375Y-146.125
X77.422Y-261.75
X77.422Y-263.5
X78.25Y-135.25
X81.25Y-120.5
X81.5Y-310.75
X82.0Y-228.0
X83.0Y-229.0
X86.381Y-102.175
X86.5Y-85.5
X87.5Y-58.25
X95.847Y-256.75
X95.847Y-258.5
X95.922Y-260.25
X98.0Y-325.0
X100.0Y-135.25
X102.922Y-256.076
X103.0Y-178.0
X106.0Y-158.25
X107.25Y-58.25
X107.5Y-301.25
X109.0Y-327.25
X109.5Y-123.75
X109.5Y-230.0
X110.407Y-192.425
X111.75Y-229.0
X112.907Y-170.09
X112.922Y-194.0
X114.25Y-319.25
X115.0Y-69.75
X115.422Y-195.25
X115.447Y-168.8
X117.987Y-167.55
X118.172Y-196.575
X119.25Y-98.75
X120.25Y-90.25
X120.25Y-135.25
X120.5Y-84.0
X120.5Y-118.0
X120.527Y-166.39
X120.672Y-197.75
X123.117Y-165.05
X123.172Y-199.0
X123.5Y-338.5
X124.672Y-200.25
X125.617Y-163.8
X126.422Y-201.5
X126.75Y-58.5
X127.672Y-269.5
X128.187Y-162.62
X129.25Y-326.75
X130.172Y-154.25
X130.687Y-161.37
X131.0Y-105.5
X131.0Y-177.0
X131.422Y-239.675
X132.75Y-293.0
X132.922Y-314.0
X133.672Y-270.75
X134.172Y-196.575
X135.422Y-238.5
X135.752Y-312.831
X136.25Y-163.5
X136.25Y-180.75
X137.25Y-177.0
X138.172Y-202.75
X139.422Y-204.0
X140.0Y-134.75
X140.0Y-218.5
X140.0Y-319.25
X140.092Y-168.658
X140.672Y-205.25
X142.172Y-206.5
X142.25Y-313.0
X143.922Y-315.25
X145.092Y-240.33
X145.107Y-158.75
X145.125Y-105.84
X145.172Y-194.0
X146.172Y-268.25
X146.172Y-316.5
X146.422Y-193.25
X147.0Y-58.5
X147.632Y-241.54
X147.647Y-160.28
X148.422Y-267.0
X149.0Y-98.899
X149.25Y-123.5
X149.75Y-327.25
X150.187Y-161.425
X150.5Y-195.25
X150.617Y-314.867
X150.75Y-238.675
X151.337Y-274.5
X152.5Y-97.25
X152.5Y-200.25
X152.767Y-162.425
X154.172Y-207.75
X155.267Y-163.425
X155.422Y-209.0
X156.172Y-111.5
X156.922Y-309.0
X157.092Y-275.75
X157.172Y-234.75
X157.422Y-216.75
X157.847Y-164.425
X158.0Y-290.75
X158.672Y-217.989
X158.75Y-195.25
X159.0Y-274.675
X159.422Y-307.75
X159.5Y-201.5
X159.672Y-219.5
X159.75Y-90.25
X159.922Y-233.5
X160.347Y-165.425
X160.5Y-76.25
X160.5Y-109.25
X160.75Y-134.75
X161.25Y-291.925
X161.25Y-313.25
X161.5Y-105.75
X161.5Y-210.25
X162.75Y-211.5
X162.887Y-166.425
X164.5Y-338.5
X166.922Y-310.25
X167.172Y-236.0
X167.75Y-100.75
X167.75Y-319.25
X168.672Y-106.925
X168.672Y-199.0
X168.75Y-238.8
X168.75Y-241.0
X168.922Y-273.25
X169.25Y-235.583
X169.5Y-326.75
X169.672Y-197.75
X169.672Y-311.5
X169.922Y-191.81
X170.0Y-315.25
X170.25Y-73.5
X170.922Y-272.0
X171.5Y-61.75
X172.672Y-190.635
X174.422Y-205.25
X174.672Y-279.5
X175.25Y-54.25
X175.562Y-189.25
X176.993Y-107.993
X177.25Y-274.8
X178.172Y-187.925
X179.25Y-100.75
X179.422Y-280.75
X179.5Y-206.5
X179.672Y-304.0
X179.75Y-68.75
X179.922Y-229.75
X180.0Y-105.5
X180.0Y-106.85
X180.172Y-291.0
X180.231Y-109.45
X180.232Y-216.75
X180.422Y-186.675
X181.0Y-135.0
X181.422Y-218.0
X182.422Y-228.5
X182.422Y-302.75
X182.497Y-109.2
X182.672Y-219.25
X183.172Y-185.425
X184.172Y-292.175
X184.922Y-138.0
X185.672Y-184.175
X185.75Y-313.25
X188.422Y-183.0
X189.672Y-231.0
X189.672Y-305.25
X190.0Y-327.0
X190.672Y-204.0
X191.172Y-127.0
X191.172Y-134.75
X191.922Y-232.25
X191.922Y-278.25
X192.172Y-306.5
X192.25Y-95.0
X192.672Y-202.75
X193.25Y-196.75
X193.25Y-201.25
X193.75Y-318.75
X194.422Y-277.0
X195.0Y-244.5
X195.042Y-76.042
X195.875Y-233.625
X195.952Y-315.25
X197.097Y-210.25
X197.422Y-284.5
X198.0Y-142.0
X198.25Y-178.25
X199.5Y-175.325
X199.75Y-75.75
X202.422Y-298.75
X202.672Y-224.75
X203.25Y-165.0
X203.422Y-291.0
X203.672Y-170.75
X203.672Y-216.75
X204.0Y-338.25
X204.422Y-218.0
X205.422Y-219.5
X207.922Y-291.25
X208.595Y-279.25
X208.625Y-305.125
X208.637Y-244.75
X209.25Y-315.75
X210.922Y-243.5
X212.0Y-257.25
X212.172Y-226.0
X212.422Y-300.0
X212.75Y-270.0
X213.25Y-325.25
X213.5Y-187.5
X214.75Y-98.75
X214.922Y-301.25
X215.75Y-186.25
X216.0Y-196.5
X216.25Y-223.5
X216.575Y-102.0
X217.825Y-100.5
X220.75Y-100.5
X220.75Y-102.0
X221.0Y-77.0
X221.25Y-138.0
X221.922Y-269.5
X222.5Y-217.25
X223.472Y-123.175
X223.75Y-103.5
X225.75Y-307.75
X226.0Y-175.25
X226.012Y-121.925
X226.75Y-229.75
X227.422Y-210.338
X227.5Y-335.75
X227.508Y-172.992
X228.552Y-120.925
X228.672Y-213.25
X229.75Y-220.5
X229.75Y-287.5
X230.5Y-172.0
X230.5Y-184.75
X231.0Y-176.75
X231.092Y-119.72
X233.632Y-118.675
X234.0Y-162.5
X234.25Y-182.25
X234.25Y-207.0
X234.5Y-176.75
X235.25Y-218.0
X236.172Y-117.675
X238.666Y-116.6
X238.75Y-211.5
X240.25Y-60.25
X240.5Y-320.25
X241.252Y-115.5
X241.5Y-89.075
X241.5Y-239.0
X241.5Y-264.25
X241.5Y-297.75
X242.247Y-69.674
X242.5Y-207.25
X242.75Y-87.425
X244.0Y-85.75
X244.222Y-124.75
X245.247Y-82.419
X245.647Y-117.524
X245.825Y-83.639
X247.0Y-109.0
T2
X62.697Y-58.5
X62.697Y-66.12
X69.447Y-58.5
X69.447Y-66.12
X76.197Y-58.5
X76.197Y-66.12
X82.947Y-58.5
X82.947Y-66.12
X83.412Y-134.44
X83.412Y-142.06
X88.332Y-112.57
X88.332Y-120.19
X89.697Y-58.5
X89.697Y-66.12
X90.162Y-134.44
X90.162Y-142.06
X92.332Y-112.44
X92.332Y-120.06
X96.332Y-112.44
X96.332Y-120.06
X96.447Y-58.5
X96.447Y-66.12
X96.912Y-134.44
X96.912Y-142.06
X100.332Y-112.44
X100.332Y-120.06
X103.197Y-58.5
X103.197Y-66.12
X103.662Y-134.38
X103.662Y-142.0
X104.332Y-112.44
X104.332Y-120.06
X104.912Y-322.19
X104.912Y-329.81
X104.987Y-248.19
X104.987Y-255.81
X108.332Y-112.44
X108.332Y-120.06
X109.947Y-58.5
X109.947Y-66.12
X110.412Y-134.44
X110.412Y-142.06
X111.687Y-322.19
X111.687Y-329.81
X111.697Y-248.19
X111.697Y-255.81
X112.332Y-112.5
X112.332Y-120.12
X116.332Y-112.5
X116.332Y-120.12
X116.697Y-58.5
X116.697Y-66.12
X117.162Y-134.44
X117.162Y-142.06
X118.447Y-248.19
X118.447Y-255.81
X118.447Y-322.19
X118.447Y-329.81
X123.447Y-58.5
X123.447Y-66.12
X123.502Y-112.51
X123.502Y-120.13
X123.912Y-134.44
X123.912Y-142.06
X125.197Y-322.19
X125.197Y-329.81
X125.237Y-248.19
X125.237Y-255.81
X127.502Y-112.51
X127.502Y-120.13
X130.197Y-58.5
X130.197Y-66.12
X130.662Y-134.44
X130.662Y-142.06
X131.502Y-112.51
X131.502Y-120.13
X131.937Y-322.13
X131.937Y-329.75
X131.987Y-248.19
X131.987Y-255.81
X135.502Y-112.51
X135.502Y-120.13
X136.947Y-58.5
X136.947Y-66.12
X137.422Y-134.69
X137.422Y-142.31
X138.697Y-248.25
X138.697Y-255.87
X138.697Y-322.19
X138.697Y-329.81
X139.502Y-112.51
X139.502Y-120.13
X143.502Y-112.51
X143.502Y-120.13
X143.697Y-58.5
X143.697Y-66.12
X144.172Y-134.44
X144.172Y-142.06
X145.437Y-322.13
X145.437Y-329.75
X145.487Y-248.25
X145.487Y-255.87
X147.502Y-112.51
X147.502Y-120.13
X150.447Y-58.5
X150.447Y-66.12
X150.922Y-134.44
X150.922Y-142.06
X151.502Y-112.51
X151.502Y-120.13
X152.187Y-322.19
X152.187Y-329.81
X152.237Y-248.19
X152.237Y-255.81
X157.197Y-58.5
X157.197Y-66.12
X157.672Y-134.44
X157.672Y-142.06
X158.937Y-322.19
X158.937Y-329.81
X158.987Y-248.25
X158.987Y-255.87
X163.947Y-58.5
X163.947Y-66.12
X164.422Y-134.38
X164.422Y-142.0
X165.687Y-322.19
X165.687Y-329.81
X165.737Y-248.25
X165.737Y-255.87
X171.172Y-134.63
X171.172Y-142.25
X172.412Y-322.13
X172.412Y-329.75
X172.487Y-248.25
X172.487Y-255.87
X177.922Y-134.38
X177.922Y-142.0
X179.187Y-322.13
X179.187Y-329.75
X179.197Y-248.19
X179.197Y-255.81
X184.672Y-134.38
X184.672Y-142.0
X185.947Y-248.19
X185.947Y-255.81
X185.947Y-322.13
X185.947Y-329.75
X189.212Y-58.5
X189.212Y-66.12
X192.697Y-322.19
X192.697Y-329.81
X192.737Y-248.25
X192.737Y-255.87
X195.962Y-58.5
X195.962Y-66.12
X199.447Y-248.25
X199.447Y-255.87
X199.447Y-322.13
X199.447Y-329.75
X200.922Y-154.82
X200.922Y-162.44
X202.712Y-58.5
X202.712Y-66.12
X204.922Y-154.88
X204.922Y-162.5
X206.197Y-248.19
X206.197Y-255.81
X206.197Y-322.19
X206.197Y-329.81
X208.922Y-154.82
X208.922Y-162.44
X209.462Y-58.75
X209.462Y-66.37
X212.922Y-154.88
X212.922Y-162.5
X216.212Y-58.5
X216.212Y-66.12
X216.922Y-154.88
X216.922Y-162.5
X220.922Y-154.88
X220.922Y-162.5
X222.962Y-58.5
X222.962Y-66.12
X224.922Y-154.88
X224.922Y-162.5
X228.922Y-154.88
X228.922Y-162.5
X229.712Y-58.75
X229.712Y-66.37
X236.462Y-58.5
X236.462Y-66.12
T3
X60.787Y-74.81
X60.787Y-82.43
X60.997Y-97.68
X60.997Y-105.3
X63.327Y-74.81
X63.327Y-82.43
X63.537Y-97.68
X63.537Y-105.3
X65.867Y-74.81
X65.867Y-82.43
X66.077Y-97.68
X66.077Y-105.3
X68.407Y-74.81
X68.407Y-82.43
X68.617Y-97.68
X68.617Y-105.3
X70.947Y-74.81
X70.947Y-82.43
X71.157Y-97.68
X71.157Y-105.3
X73.487Y-74.81
X73.487Y-82.43
X73.697Y-97.68
X73.697Y-105.3
X75.997Y-173.68
X75.997Y-181.3
X76.027Y-74.81
X76.027Y-82.43
X76.142Y-213.63
X76.142Y-221.25
X76.172Y-287.63
X76.172Y-295.25
X76.237Y-97.68
X76.237Y-105.3
X78.537Y-173.68
X78.537Y-181.3
X78.547Y-150.68
X78.547Y-158.3
X78.567Y-74.81
X78.567Y-82.43
X78.682Y-213.63
X78.682Y-221.25
X78.712Y-287.63
X78.712Y-295.25
X78.777Y-97.68
X78.777Y-105.3
X81.077Y-173.68
X81.077Y-181.3
X81.087Y-150.68
X81.087Y-158.3
X81.107Y-74.81
X81.107Y-82.43
X81.222Y-213.63
X81.222Y-221.25
X81.252Y-287.63
X81.252Y-295.25
X81.317Y-97.68
X81.317Y-105.3
X83.617Y-173.68
X83.617Y-181.3
X83.627Y-150.68
X83.627Y-158.3
X83.647Y-74.81
X83.647Y-82.43
X83.762Y-213.63
X83.762Y-221.25
X83.792Y-287.63
X83.792Y-295.25
X83.857Y-97.68
X83.857Y-105.3
X86.157Y-173.68
X86.157Y-181.3
X86.167Y-150.68
X86.167Y-158.3
X86.302Y-213.63
X86.302Y-221.25
X86.332Y-287.63
X86.332Y-295.25
X88.697Y-173.68
X88.697Y-181.3
X88.707Y-150.68
X88.707Y-158.3
X88.842Y-213.63
X88.842Y-221.25
X88.872Y-287.63
X88.872Y-295.25
X89.607Y-327.0
X89.662Y-319.75
X90.682Y-75.0
X90.682Y-82.62
X90.722Y-87.87
X90.722Y-95.49
X91.237Y-173.68
X91.237Y-181.3
X91.247Y-150.68
X91.247Y-158.3
X91.382Y-213.63
X91.382Y-221.25
X91.412Y-287.63
X91.412Y-295.25
X92.107Y-327.0
X92.162Y-319.75
X93.222Y-75.0
X93.222Y-82.62
X93.262Y-87.87
X93.262Y-95.49
X93.302Y-101.32
X93.302Y-108.94
X93.777Y-173.68
X93.777Y-181.3
X93.787Y-150.68
X93.787Y-158.3
X93.922Y-213.63
X93.922Y-221.25
X93.952Y-287.63
X93.952Y-295.25
X95.762Y-75.0
X95.762Y-82.62
X95.802Y-87.87
X95.802Y-95.49
X95.842Y-101.32
X95.842Y-108.94
X96.317Y-173.68
X96.317Y-181.3
X96.327Y-150.68
X96.327Y-158.3
X96.462Y-213.63
X96.462Y-221.25
X96.492Y-287.63
X96.492Y-295.25
X98.302Y-75.0
X98.302Y-82.62
X98.342Y-87.87
X98.342Y-95.49
X98.382Y-101.32
X98.382Y-108.94
X98.857Y-173.68
X98.857Y-181.3
X98.867Y-150.68
X98.867Y-158.3
X99.002Y-213.63
X99.002Y-221.25
X99.032Y-287.63
X99.032Y-295.25
X100.842Y-75.0
X100.842Y-82.62
X100.882Y-87.87
X100.882Y-95.49
X100.922Y-101.32
X100.922Y-108.94
X101.407Y-150.68
X101.407Y-158.3
X103.382Y-75.0
X103.382Y-82.62
X103.422Y-87.87
X103.422Y-95.49
X103.462Y-101.32
X103.462Y-108.94
X104.312Y-213.63
X104.312Y-221.25
X104.382Y-287.75
X104.382Y-295.37
X105.922Y-75.0
X105.922Y-82.62
X105.962Y-87.87
X105.962Y-95.49
X106.002Y-101.32
X106.002Y-108.94
X106.852Y-213.63
X106.852Y-221.25
X106.922Y-287.75
X106.922Y-295.37
X107.867Y-173.68
X107.867Y-181.3
X108.462Y-75.0
X108.462Y-82.62
X108.502Y-87.87
X108.502Y-95.49
X108.542Y-101.32
X108.542Y-108.94
X109.392Y-213.63
X109.392Y-221.25
X109.462Y-287.75
X109.462Y-295.37
X110.367Y-150.68
X110.367Y-158.3
X110.407Y-173.68
X110.407Y-181.3
X111.002Y-75.0
X111.002Y-82.62
X111.042Y-87.87
X111.042Y-95.49
X111.082Y-101.32
X111.082Y-108.94
X111.932Y-213.63
X111.932Y-221.25
X112.002Y-287.75
X112.002Y-295.37
X112.907Y-150.68
X112.907Y-158.3
X112.947Y-173.68
X112.947Y-181.3
X113.542Y-75.0
X113.542Y-82.62
X113.582Y-87.87
X113.582Y-95.49
X114.472Y-213.63
X114.472Y-221.25
X114.542Y-287.75
X114.542Y-295.37
X115.447Y-150.68
X115.447Y-158.3
X115.487Y-173.68
X115.487Y-181.3
X117.012Y-213.63
X117.012Y-221.25
X117.082Y-287.75
X117.082Y-295.37
X117.987Y-150.68
X117.987Y-158.3
X118.027Y-173.68
X118.027Y-181.3
X119.552Y-213.63
X119.552Y-221.25
X119.622Y-287.75
X119.622Y-295.37
X120.527Y-150.68
X120.527Y-158.3
X120.567Y-173.68
X120.567Y-181.3
X122.092Y-213.63
X122.092Y-221.25
X122.162Y-287.75
X122.162Y-295.37
X123.067Y-150.68
X123.067Y-158.3
X123.107Y-173.68
X123.107Y-181.3
X124.632Y-213.63
X124.632Y-221.25
X124.702Y-287.75
X124.702Y-295.37
X125.607Y-150.68
X125.607Y-158.3
X125.647Y-173.68
X125.647Y-181.3
X125.762Y-75.0
X125.762Y-82.62
X125.932Y-88.0
X125.932Y-95.62
X127.172Y-213.63
X127.172Y-221.25
X127.242Y-287.75
X127.242Y-295.37
X128.147Y-150.68
X128.147Y-158.3
X128.187Y-173.68
X128.187Y-181.3
X128.302Y-75.0
X128.302Y-82.62
X128.472Y-88.0
X128.472Y-95.62
X128.627Y-101.75
X128.627Y-109.37
X130.687Y-150.68
X130.687Y-158.3
X130.727Y-173.68
X130.727Y-181.3
X130.842Y-75.0
X130.842Y-82.62
X131.012Y-88.0
X131.012Y-95.62
X131.167Y-101.75
X131.167Y-109.37
X132.382Y-287.75
X132.382Y-295.37
X132.392Y-213.63
X132.392Y-221.25
X133.227Y-150.68
X133.227Y-158.3
X133.382Y-75.0
X133.382Y-82.62
X133.552Y-88.0
X133.552Y-95.62
X133.707Y-101.75
X133.707Y-109.37
X134.922Y-287.75
X134.922Y-295.37
X134.932Y-213.63
X134.932Y-221.25
X135.922Y-75.0
X135.922Y-82.62
X136.092Y-88.0
X136.092Y-95.62
X136.247Y-101.75
X136.247Y-109.37
X137.462Y-287.75
X137.462Y-295.37
X137.472Y-213.63
X137.472Y-221.25
X138.462Y-75.0
X138.462Y-82.62
X138.632Y-88.0
X138.632Y-95.62
X138.787Y-101.75
X138.787Y-109.37
X140.002Y-287.75
X140.002Y-295.37
X140.012Y-213.63
X140.012Y-221.25
X140.092Y-173.63
X140.092Y-181.25
X141.002Y-75.0
X141.002Y-82.62
X141.172Y-88.0
X141.172Y-95.62
X141.327Y-101.75
X141.327Y-109.37
X142.542Y-287.75
X142.542Y-295.37
X142.552Y-213.63
X142.552Y-221.25
X142.567Y-149.81
X142.567Y-157.43
X142.632Y-173.63
X142.632Y-181.25
X143.542Y-75.0
X143.542Y-82.62
X143.712Y-88.0
X143.712Y-95.62
X143.867Y-101.75
X143.867Y-109.37
X145.082Y-287.75
X145.082Y-295.37
X145.092Y-213.63
X145.092Y-221.25
X145.107Y-149.81
X145.107Y-157.43
X145.172Y-173.63
X145.172Y-181.25
X146.082Y-75.0
X146.082Y-82.62
X146.252Y-88.0
X146.252Y-95.62
X146.407Y-101.75
X146.407Y-109.37
X147.622Y-287.75
X147.622Y-295.37
X147.632Y-213.63
X147.632Y-221.25
X147.647Y-149.81
X147.647Y-157.43
X147.712Y-173.63
X147.712Y-181.25
X148.622Y-75.0
X148.622Y-82.62
X148.792Y-88.0
X148.792Y-95.62
X150.162Y-287.75
X150.162Y-295.37
X150.172Y-213.63
X150.172Y-221.25
X150.187Y-149.81
X150.187Y-157.43
X150.252Y-173.63
X150.252Y-181.25
X152.727Y-149.81
X152.727Y-157.43
X152.792Y-173.63
X152.792Y-181.25
X155.267Y-149.81
X155.267Y-157.43
X155.332Y-173.63
X155.332Y-181.25
X155.342Y-287.88
X155.342Y-295.5
X155.352Y-213.76
X155.352Y-221.38
X157.807Y-149.81
X157.807Y-157.43
X157.872Y-173.63
X157.872Y-181.25
X157.882Y-287.88
X157.882Y-295.5
X157.892Y-213.76
X157.892Y-221.38
X160.347Y-149.81
X160.347Y-157.43
X160.412Y-173.63
X160.412Y-181.25
X160.422Y-287.88
X160.422Y-295.5
X160.432Y-213.76
X160.432Y-221.38
X162.887Y-149.81
X162.887Y-157.43
X162.952Y-173.63
X162.952Y-181.25
X162.962Y-287.88
X162.962Y-295.5
X162.972Y-213.76
X162.972Y-221.38
X165.427Y-149.81
X165.427Y-157.43
X165.502Y-287.88
X165.502Y-295.5
X165.512Y-213.76
X165.512Y-221.38
X166.547Y-80.68
X166.547Y-88.3
X166.547Y-95.93
X166.547Y-103.55
X168.042Y-287.88
X168.042Y-295.5
X168.052Y-213.76
X168.052Y-221.38
X168.497Y-173.5
X168.497Y-181.12
X169.087Y-80.68
X169.087Y-88.3
X169.087Y-95.93
X169.087Y-103.55
X170.582Y-287.88
X170.582Y-295.5
X170.592Y-213.76
X170.592Y-221.38
X171.037Y-173.5
X171.037Y-181.12
X171.142Y-149.81
X171.142Y-157.43
X171.627Y-80.68
X171.627Y-88.3
X171.627Y-95.93
X171.627Y-103.55
X173.122Y-287.88
X173.122Y-295.5
X173.132Y-213.76
X173.132Y-221.38
X173.577Y-173.5
X173.577Y-181.12
X173.682Y-149.81
X173.682Y-157.43
X174.167Y-80.68
X174.167Y-88.3
X174.167Y-95.93
X174.167Y-103.55
X176.117Y-173.5
X176.117Y-181.12
X176.222Y-149.81
X176.222Y-157.43
X176.707Y-80.68
X176.707Y-88.3
X176.707Y-95.93
X176.707Y-103.55
X178.142Y-213.76
X178.142Y-221.38
X178.172Y-287.93
X178.172Y-295.55
X178.657Y-173.5
X178.657Y-181.12
X178.762Y-149.81
X178.762Y-157.43
X179.247Y-80.68
X179.247Y-88.3
X179.247Y-95.93
X179.247Y-103.55
X180.682Y-213.76
X180.682Y-221.38
X180.712Y-287.93
X180.712Y-295.55
X181.197Y-173.5
X181.197Y-181.12
X181.302Y-149.81
X181.302Y-157.43
X181.787Y-80.68
X181.787Y-88.3
X181.787Y-95.93
X181.787Y-103.55
X183.222Y-213.76
X183.222Y-221.38
X183.252Y-287.93
X183.252Y-295.55
X183.737Y-173.5
X183.737Y-181.12
X183.842Y-149.81
X183.842Y-157.43
X185.762Y-213.76
X185.762Y-221.38
X185.792Y-287.93
X185.792Y-295.55
X186.277Y-173.5
X186.277Y-181.12
X186.382Y-149.81
X186.382Y-157.43
X188.302Y-213.76
X188.302Y-221.38
X188.332Y-287.93
X188.332Y-295.55
X188.817Y-173.5
X188.817Y-181.12
X188.922Y-149.81
X188.922Y-157.43
X190.842Y-213.76
X190.842Y-221.38
X190.872Y-287.93
X190.872Y-295.55
X191.357Y-173.5
X191.357Y-181.12
X191.462Y-149.81
X191.462Y-157.43
X193.312Y-106.25
X193.312Y-113.87
X193.382Y-213.76
X193.382Y-221.38
X193.412Y-287.93
X193.412Y-295.55
X193.602Y-127.75
X193.602Y-135.37
X194.002Y-149.81
X194.002Y-157.43
X195.852Y-106.25
X195.852Y-113.87
X195.922Y-213.76
X195.922Y-221.38
X195.952Y-287.93
X195.952Y-295.55
X196.142Y-127.75
X196.142Y-135.37
X198.392Y-106.25
X198.392Y-113.87
X198.682Y-127.75
X198.682Y-135.37
X199.762Y-80.76
X199.762Y-96.0
X200.932Y-106.25
X200.932Y-113.87
X201.017Y-213.81
X201.017Y-221.43
X201.047Y-287.93
X201.047Y-295.55
X201.222Y-127.75
X201.222Y-135.37
X202.302Y-80.76
X202.302Y-96.0
X203.472Y-106.25
X203.472Y-113.87
X203.557Y-213.81
X203.557Y-221.43
X203.587Y-287.93
X203.587Y-295.55
X203.762Y-127.75
X203.762Y-135.37
X204.842Y-80.76
X204.842Y-96.0
X206.012Y-106.25
X206.012Y-113.87
X206.047Y-144.12
X206.047Y-151.74
X206.097Y-213.81
X206.097Y-221.43
X206.127Y-287.93
X206.127Y-295.55
X206.302Y-127.75
X206.302Y-135.37
X207.382Y-80.76
X207.382Y-96.0
X207.547Y-167.18
X207.547Y-174.8
X208.552Y-106.25
X208.552Y-113.87
X208.587Y-144.12
X208.587Y-151.74
X208.637Y-213.81
X208.637Y-221.43
X208.667Y-287.93
X208.667Y-295.55
X208.842Y-127.75
X208.842Y-135.37
X209.922Y-80.76
X209.922Y-96.0
X210.087Y-167.18
X210.087Y-174.8
X211.092Y-106.25
X211.092Y-113.87
X211.127Y-144.12
X211.127Y-151.74
X211.177Y-213.81
X211.177Y-221.43
X211.207Y-287.93
X211.207Y-295.55
X211.382Y-127.75
X211.382Y-135.37
X212.462Y-80.76
X212.462Y-96.0
X212.627Y-167.18
X212.627Y-174.8
X213.632Y-106.25
X213.632Y-113.87
X213.667Y-144.12
X213.667Y-151.74
X213.717Y-213.81
X213.717Y-221.43
X213.747Y-287.93
X213.747Y-295.55
X213.922Y-127.75
X213.922Y-135.37
X215.002Y-80.76
X215.002Y-96.0
X215.167Y-167.18
X215.167Y-174.8
X216.172Y-106.25
X216.172Y-113.87
X216.207Y-144.12
X216.207Y-151.74
X216.257Y-213.81
X216.257Y-221.43
X216.287Y-287.93
X216.287Y-295.55
X216.462Y-127.75
X216.462Y-135.37
X217.542Y-80.76
X217.542Y-96.0
X217.707Y-167.18
X217.707Y-174.8
X218.747Y-144.12
X218.747Y-151.74
X218.797Y-213.81
X218.797Y-221.43
X218.827Y-287.93
X218.827Y-295.55
X219.372Y-240.625
X219.372Y-243.165
X219.372Y-245.705
X219.372Y-248.245
X219.372Y-250.785
X219.372Y-253.325
X219.372Y-255.865
X219.372Y-261.915
X219.372Y-264.455
X219.372Y-266.995
X219.372Y-269.535
X219.372Y-272.075
X219.372Y-274.615
X219.372Y-277.155
X219.422Y-182.71
X219.422Y-185.25
X219.422Y-187.79
X219.422Y-190.33
X219.422Y-192.87
X219.422Y-195.41
X219.422Y-197.95
X219.422Y-200.49
X219.422Y-203.03
X219.422Y-205.57
X220.082Y-80.76
X220.082Y-96.0
X220.247Y-167.18
X220.247Y-174.8
X220.852Y-106.13
X220.852Y-113.75
X220.932Y-127.68
X220.932Y-135.3
X221.287Y-144.12
X221.287Y-151.74
X222.622Y-80.76
X222.622Y-96.0
X222.787Y-167.18
X222.787Y-174.8
X223.392Y-106.13
X223.392Y-113.75
X223.472Y-127.68
X223.472Y-135.3
X223.827Y-144.12
X223.827Y-151.74
X225.162Y-80.76
X225.162Y-96.0
X225.932Y-106.13
X225.932Y-113.75
X226.012Y-127.68
X226.012Y-135.3
X226.992Y-240.625
X226.992Y-243.165
X226.992Y-245.705
X226.992Y-248.245
X226.992Y-250.785
X226.992Y-253.325
X226.992Y-255.865
X226.992Y-261.915
X226.992Y-264.455
X226.992Y-266.995
X226.992Y-269.535
X226.992Y-272.075
X226.992Y-274.615
X226.992Y-277.155
X227.042Y-182.71
X227.042Y-185.25
X227.042Y-187.79
X227.042Y-190.33
X227.042Y-192.87
X227.042Y-195.41
X227.042Y-197.95
X227.042Y-200.49
X227.042Y-203.03
X227.042Y-205.57
X227.702Y-80.76
X227.702Y-96.0
X228.472Y-106.13
X228.472Y-113.75
X228.552Y-127.68
X228.552Y-135.3
X230.242Y-80.76
X230.242Y-96.0
X231.012Y-106.13
X231.012Y-113.75
X231.092Y-127.68
X231.092Y-135.3
X232.782Y-80.76
X232.782Y-96.0
X233.552Y-106.13
X233.552Y-113.75
X233.632Y-127.68
X233.632Y-135.3
X235.322Y-80.76
X235.322Y-96.0
X236.092Y-106.13
X236.092Y-113.75
X236.172Y-127.68
X236.172Y-135.3
X237.862Y-80.76
X237.862Y-96.0
X238.632Y-106.13
X238.632Y-113.75
X238.712Y-127.68
X238.712Y-135.3
X241.172Y-106.13
X241.172Y-113.75
X241.252Y-127.68
X241.252Y-135.3
X243.712Y-106.13
X243.712Y-113.75
X243.792Y-127.68
X243.792Y-135.3
T4
X60.172Y-54.0
X62.712Y-54.0
X66.947Y-54.0
X69.487Y-54.0
X73.697Y-54.0
X76.237Y-54.0
X80.432Y-54.0
X80.872Y-129.94
X82.972Y-54.0
X83.412Y-129.94
X87.157Y-54.0
X87.622Y-129.94
X89.697Y-54.0
X90.162Y-129.94
X93.932Y-54.0
X94.372Y-129.94
X96.472Y-54.0
X96.912Y-129.94
X100.682Y-54.0
X101.122Y-129.94
X102.397Y-334.25
X102.422Y-260.25
X103.222Y-54.0
X103.662Y-129.94
X104.937Y-334.25
X104.962Y-260.25
X107.432Y-54.0
X107.872Y-129.94
X109.147Y-334.25
X109.172Y-260.25
X109.972Y-54.0
X110.412Y-129.94
X111.687Y-334.25
X111.712Y-260.25
X114.142Y-54.0
X114.637Y-129.94
X115.897Y-334.25
X115.937Y-260.25
X116.682Y-54.0
X117.177Y-129.94
X118.437Y-334.25
X118.477Y-260.25
X120.907Y-54.0
X121.412Y-129.94
X122.672Y-334.25
X122.712Y-260.25
X123.447Y-54.0
X123.952Y-129.94
X125.212Y-334.25
X125.252Y-260.25
X127.642Y-54.0
X128.122Y-129.94
X129.422Y-260.25
X129.422Y-334.25
X130.182Y-54.0
X130.662Y-129.94
X131.962Y-260.25
X131.962Y-334.25
X134.392Y-54.0
X134.882Y-129.94
X136.172Y-334.25
X136.212Y-260.25
X136.932Y-54.0
X137.422Y-129.94
X138.712Y-334.25
X138.752Y-260.25
X141.142Y-54.0
X141.632Y-129.94
X142.897Y-334.25
X142.937Y-260.25
X143.682Y-54.0
X144.172Y-129.94
X145.437Y-334.25
X145.477Y-260.25
X147.892Y-54.0
X148.382Y-129.94
X149.672Y-334.25
X149.712Y-260.25
X150.432Y-54.0
X150.922Y-129.94
X152.212Y-334.25
X152.252Y-260.25
X154.657Y-54.0
X155.147Y-129.94
X156.397Y-334.25
X156.422Y-260.25
X157.197Y-54.0
X157.687Y-129.94
X158.937Y-334.25
X158.962Y-260.25
X161.407Y-54.0
X161.882Y-129.94
X163.147Y-334.25
X163.172Y-260.25
X163.947Y-54.0
X164.422Y-129.94
X165.687Y-334.25
X165.712Y-260.25
X168.647Y-129.94
X169.897Y-334.25
X169.922Y-260.25
X171.187Y-129.94
X172.437Y-334.25
X172.462Y-260.25
X175.397Y-129.94
X176.647Y-334.25
X176.672Y-260.25
X177.937Y-129.94
X179.187Y-334.25
X179.212Y-260.25
X182.132Y-129.94
X183.397Y-334.25
X183.422Y-260.25
X184.672Y-129.94
X185.937Y-334.25
X185.962Y-260.25
X186.672Y-54.0
X189.212Y-54.0
X190.162Y-334.25
X190.187Y-260.25
X192.702Y-334.25
X192.727Y-260.25
X193.422Y-54.0
X195.962Y-54.0
X196.912Y-334.25
X196.922Y-260.25
X199.452Y-334.25
X199.462Y-260.25
X200.172Y-54.0
X202.712Y-54.0
X203.647Y-334.25
X203.712Y-260.25
X206.187Y-334.25
X206.252Y-260.25
X206.922Y-54.0
X209.462Y-54.0
X213.672Y-54.0
X216.212Y-54.0
X220.422Y-54.0
X222.962Y-54.0
X227.172Y-54.0
X229.712Y-54.0
X233.937Y-54.0
X236.477Y-54.0
T5
X52.932Y-333.0
X52.932Y-335.54
X55.472Y-333.0
X55.472Y-335.54
X58.012Y-333.0
X58.012Y-335.54
X60.552Y-333.0
X60.552Y-335.54
X63.092Y-333.0
X63.092Y-335.54
X65.632Y-333.0
X65.632Y-335.54
X68.172Y-333.0
X68.172Y-335.54
X70.712Y-333.0
X70.712Y-335.54
X73.252Y-333.0
X73.252Y-335.54
X75.792Y-333.0
X75.792Y-335.54
X77.132Y-250.71
X77.132Y-253.25
X79.672Y-250.71
X79.672Y-253.25
X82.212Y-250.71
X82.212Y-253.25
X84.752Y-250.71
X84.752Y-253.25
X87.292Y-250.71
X87.292Y-253.25
X89.647Y-334.25
X89.832Y-250.71
X89.832Y-253.25
X92.187Y-334.25
X92.372Y-250.71
X92.372Y-253.25
X94.912Y-250.71
X94.912Y-253.25
X97.452Y-250.71
X97.452Y-253.25
X99.992Y-250.71
X99.992Y-253.25
X158.552Y-116.21
X158.552Y-118.75
X161.092Y-116.21
X161.092Y-118.75
X163.632Y-116.21
X163.632Y-118.75
X166.172Y-116.21
X166.172Y-118.75
X168.712Y-116.21
X168.712Y-118.75
X171.252Y-116.21
X171.252Y-118.75
X173.792Y-116.21
X173.792Y-118.75
X176.332Y-116.21
X176.332Y-118.75
X178.872Y-116.21
X178.872Y-118.75
X181.412Y-116.21
X181.412Y-118.75
X202.882Y-182.96
X202.882Y-185.5
X202.882Y-188.04
X202.882Y-190.58
X202.882Y-193.12
X202.882Y-195.66
X202.882Y-198.2
X202.882Y-200.74
X202.882Y-203.28
X202.882Y-205.82
X205.422Y-182.96
X205.422Y-185.5
X205.422Y-188.04
X205.422Y-190.58
X205.422Y-193.12
X205.422Y-195.66
X205.422Y-198.2
X205.422Y-200.74
X205.422Y-203.28
X205.422Y-205.82
M30
