G04 #@! TF.GenerationSoftware,KiCad,Pcbnew,8.0.2*
G04 #@! TF.CreationDate,2024-05-23T12:11:11+02:00*
G04 #@! TF.ProjectId,final-memory,66696e61-6c2d-46d6-956d-6f72792e6b69,rev?*
G04 #@! TF.SameCoordinates,Original*
G04 #@! TF.FileFunction,Soldermask,Top*
G04 #@! TF.FilePolarity,Negative*
%FSLAX46Y46*%
G04 Gerber Fmt 4.6, Leading zero omitted, Abs format (unit mm)*
G04 Created by KiCad (PCBNEW 8.0.2) date 2024-05-23 12:11:11*
%MOMM*%
%LPD*%
G01*
G04 APERTURE LIST*
%ADD10C,1.400000*%
%ADD11O,1.400000X1.400000*%
%ADD12R,1.800000X1.800000*%
%ADD13C,1.800000*%
%ADD14R,1.600000X1.600000*%
%ADD15O,1.600000X1.600000*%
%ADD16R,1.700000X1.700000*%
%ADD17O,1.700000X1.700000*%
%ADD18C,1.600000*%
G04 APERTURE END LIST*
D10*
X116331572Y-120120000D03*
D11*
X116331572Y-112500000D03*
D12*
X175396572Y-129940000D03*
D13*
X177936572Y-129940000D03*
D12*
X186671572Y-54000000D03*
D13*
X189211572Y-54000000D03*
D10*
X164421572Y-142000000D03*
D11*
X164421572Y-134380000D03*
D10*
X69446572Y-66120000D03*
D11*
X69446572Y-58500000D03*
D12*
X142896572Y-334250000D03*
D13*
X145436572Y-334250000D03*
D14*
X140091572Y-181250000D03*
D15*
X142631572Y-181250000D03*
X145171572Y-181250000D03*
X147711572Y-181250000D03*
X150251572Y-181250000D03*
X152791572Y-181250000D03*
X155331572Y-181250000D03*
X157871572Y-181250000D03*
X160411572Y-181250000D03*
X162951572Y-181250000D03*
X162951572Y-173630000D03*
X160411572Y-173630000D03*
X157871572Y-173630000D03*
X155331572Y-173630000D03*
X152791572Y-173630000D03*
X150251572Y-173630000D03*
X147711572Y-173630000D03*
X145171572Y-173630000D03*
X142631572Y-173630000D03*
X140091572Y-173630000D03*
D14*
X219421572Y-182710000D03*
D15*
X219421572Y-185250000D03*
X219421572Y-187790000D03*
X219421572Y-190330000D03*
X219421572Y-192870000D03*
X219421572Y-195410000D03*
X219421572Y-197950000D03*
X219421572Y-200490000D03*
X219421572Y-203030000D03*
X219421572Y-205570000D03*
X227041572Y-205570000D03*
X227041572Y-203030000D03*
X227041572Y-200490000D03*
X227041572Y-197950000D03*
X227041572Y-195410000D03*
X227041572Y-192870000D03*
X227041572Y-190330000D03*
X227041572Y-187790000D03*
X227041572Y-185250000D03*
X227041572Y-182710000D03*
D10*
X137421572Y-142310000D03*
D11*
X137421572Y-134690000D03*
D10*
X89696572Y-66120000D03*
D11*
X89696572Y-58500000D03*
D10*
X143501572Y-120130000D03*
D11*
X143501572Y-112510000D03*
D12*
X121411572Y-129940000D03*
D13*
X123951572Y-129940000D03*
D12*
X115896572Y-334250000D03*
D13*
X118436572Y-334250000D03*
D10*
X206196572Y-322190000D03*
D11*
X206196572Y-329810000D03*
D14*
X178171572Y-295550000D03*
D15*
X180711572Y-295550000D03*
X183251572Y-295550000D03*
X185791572Y-295550000D03*
X188331572Y-295550000D03*
X190871572Y-295550000D03*
X193411572Y-295550000D03*
X195951572Y-295550000D03*
X195951572Y-287930000D03*
X193411572Y-287930000D03*
X190871572Y-287930000D03*
X188331572Y-287930000D03*
X185791572Y-287930000D03*
X183251572Y-287930000D03*
X180711572Y-287930000D03*
X178171572Y-287930000D03*
D12*
X129421572Y-334250000D03*
D13*
X131961572Y-334250000D03*
D10*
X229711572Y-66370000D03*
D11*
X229711572Y-58750000D03*
D16*
X158551572Y-116210000D03*
D17*
X158551572Y-118750000D03*
X161091572Y-116210000D03*
X161091572Y-118750000D03*
X163631572Y-116210000D03*
X163631572Y-118750000D03*
X166171572Y-116210000D03*
X166171572Y-118750000D03*
X168711572Y-116210000D03*
X168711572Y-118750000D03*
X171251572Y-116210000D03*
X171251572Y-118750000D03*
X173791572Y-116210000D03*
X173791572Y-118750000D03*
X176331572Y-116210000D03*
X176331572Y-118750000D03*
X178871572Y-116210000D03*
X178871572Y-118750000D03*
X181411572Y-116210000D03*
X181411572Y-118750000D03*
D10*
X209461572Y-66370000D03*
D11*
X209461572Y-58750000D03*
D12*
X196911572Y-334250000D03*
D13*
X199451572Y-334250000D03*
D12*
X147891572Y-54000000D03*
D13*
X150431572Y-54000000D03*
D10*
X135501572Y-120130000D03*
D11*
X135501572Y-112510000D03*
D10*
X110411572Y-142060000D03*
D11*
X110411572Y-134440000D03*
D10*
X104331572Y-120060000D03*
D11*
X104331572Y-112440000D03*
D10*
X147501572Y-120130000D03*
D11*
X147501572Y-112510000D03*
D14*
X201046572Y-295550000D03*
D15*
X203586572Y-295550000D03*
X206126572Y-295550000D03*
X208666572Y-295550000D03*
X211206572Y-295550000D03*
X213746572Y-295550000D03*
X216286572Y-295550000D03*
X218826572Y-295550000D03*
X218826572Y-287930000D03*
X216286572Y-287930000D03*
X213746572Y-287930000D03*
X211206572Y-287930000D03*
X208666572Y-287930000D03*
X206126572Y-287930000D03*
X203586572Y-287930000D03*
X201046572Y-287930000D03*
D10*
X144171572Y-142060000D03*
D11*
X144171572Y-134440000D03*
D10*
X172486572Y-248250000D03*
D11*
X172486572Y-255870000D03*
D10*
X131501572Y-120130000D03*
D11*
X131501572Y-112510000D03*
D10*
X108331572Y-120060000D03*
D11*
X108331572Y-112440000D03*
D10*
X130196572Y-66120000D03*
D11*
X130196572Y-58500000D03*
D14*
X220931572Y-135300000D03*
D15*
X223471572Y-135300000D03*
X226011572Y-135300000D03*
X228551572Y-135300000D03*
X231091572Y-135300000D03*
X233631572Y-135300000D03*
X236171572Y-135300000D03*
X238711572Y-135300000D03*
X241251572Y-135300000D03*
X243791572Y-135300000D03*
X243791572Y-127680000D03*
X241251572Y-127680000D03*
X238711572Y-127680000D03*
X236171572Y-127680000D03*
X233631572Y-127680000D03*
X231091572Y-127680000D03*
X228551572Y-127680000D03*
X226011572Y-127680000D03*
X223471572Y-127680000D03*
X220931572Y-127680000D03*
D12*
X80431572Y-54000000D03*
D13*
X82971572Y-54000000D03*
D14*
X60996572Y-105300000D03*
D15*
X63536572Y-105300000D03*
X66076572Y-105300000D03*
X68616572Y-105300000D03*
X71156572Y-105300000D03*
X73696572Y-105300000D03*
X76236572Y-105300000D03*
X78776572Y-105300000D03*
X81316572Y-105300000D03*
X83856572Y-105300000D03*
X83856572Y-97680000D03*
X81316572Y-97680000D03*
X78776572Y-97680000D03*
X76236572Y-97680000D03*
X73696572Y-97680000D03*
X71156572Y-97680000D03*
X68616572Y-97680000D03*
X66076572Y-97680000D03*
X63536572Y-97680000D03*
X60996572Y-97680000D03*
D12*
X161881572Y-129940000D03*
D13*
X164421572Y-129940000D03*
D16*
X77131572Y-250710000D03*
D17*
X77131572Y-253250000D03*
X79671572Y-250710000D03*
X79671572Y-253250000D03*
X82211572Y-250710000D03*
X82211572Y-253250000D03*
X84751572Y-250710000D03*
X84751572Y-253250000D03*
X87291572Y-250710000D03*
X87291572Y-253250000D03*
X89831572Y-250710000D03*
X89831572Y-253250000D03*
X92371572Y-250710000D03*
X92371572Y-253250000D03*
X94911572Y-250710000D03*
X94911572Y-253250000D03*
X97451572Y-250710000D03*
X97451572Y-253250000D03*
X99991572Y-250710000D03*
X99991572Y-253250000D03*
D10*
X216211572Y-66120000D03*
D11*
X216211572Y-58500000D03*
D12*
X200171572Y-54000000D03*
D13*
X202711572Y-54000000D03*
D10*
X150921572Y-142060000D03*
D11*
X150921572Y-134440000D03*
D16*
X89646572Y-334250000D03*
D17*
X92186572Y-334250000D03*
D12*
X149711572Y-260250000D03*
D13*
X152251572Y-260250000D03*
D10*
X123911572Y-142060000D03*
D11*
X123911572Y-134440000D03*
D10*
X90161572Y-142060000D03*
D11*
X90161572Y-134440000D03*
D10*
X157671572Y-142060000D03*
D11*
X157671572Y-134440000D03*
D12*
X196921572Y-260250000D03*
D13*
X199461572Y-260250000D03*
D12*
X107431572Y-54000000D03*
D13*
X109971572Y-54000000D03*
D12*
X156421572Y-260250000D03*
D13*
X158961572Y-260250000D03*
D10*
X206196572Y-248190000D03*
D11*
X206196572Y-255810000D03*
D12*
X161406572Y-54000000D03*
D13*
X163946572Y-54000000D03*
D10*
X131936572Y-322130000D03*
D11*
X131936572Y-329750000D03*
D10*
X116696572Y-66120000D03*
D11*
X116696572Y-58500000D03*
D16*
X52931572Y-333000000D03*
D17*
X52931572Y-335540000D03*
X55471572Y-333000000D03*
X55471572Y-335540000D03*
X58011572Y-333000000D03*
X58011572Y-335540000D03*
X60551572Y-333000000D03*
X60551572Y-335540000D03*
X63091572Y-333000000D03*
X63091572Y-335540000D03*
X65631572Y-333000000D03*
X65631572Y-335540000D03*
X68171572Y-333000000D03*
X68171572Y-335540000D03*
X70711572Y-333000000D03*
X70711572Y-335540000D03*
X73251572Y-333000000D03*
X73251572Y-335540000D03*
X75791572Y-333000000D03*
X75791572Y-335540000D03*
D12*
X141141572Y-54000000D03*
D13*
X143681572Y-54000000D03*
D10*
X145436572Y-322130000D03*
D11*
X145436572Y-329750000D03*
D12*
X183421572Y-260250000D03*
D13*
X185961572Y-260250000D03*
D10*
X117161572Y-142060000D03*
D11*
X117161572Y-134440000D03*
D12*
X190186572Y-260250000D03*
D13*
X192726572Y-260250000D03*
D14*
X220851572Y-113750000D03*
D15*
X223391572Y-113750000D03*
X225931572Y-113750000D03*
X228471572Y-113750000D03*
X231011572Y-113750000D03*
X233551572Y-113750000D03*
X236091572Y-113750000D03*
X238631572Y-113750000D03*
X241171572Y-113750000D03*
X243711572Y-113750000D03*
X243711572Y-106130000D03*
X241171572Y-106130000D03*
X238631572Y-106130000D03*
X236091572Y-106130000D03*
X233551572Y-106130000D03*
X231011572Y-106130000D03*
X228471572Y-106130000D03*
X225931572Y-106130000D03*
X223391572Y-106130000D03*
X220851572Y-106130000D03*
D12*
X128121572Y-129940000D03*
D13*
X130661572Y-129940000D03*
D12*
X233936572Y-54000000D03*
D13*
X236476572Y-54000000D03*
D10*
X109946572Y-66120000D03*
D11*
X109946572Y-58500000D03*
D10*
X184671572Y-142000000D03*
D11*
X184671572Y-134380000D03*
D12*
X149671572Y-334250000D03*
D13*
X152211572Y-334250000D03*
D10*
X103661572Y-142000000D03*
D11*
X103661572Y-134380000D03*
D12*
X87156572Y-54000000D03*
D13*
X89696572Y-54000000D03*
D10*
X125236572Y-248190000D03*
D11*
X125236572Y-255810000D03*
D14*
X90681572Y-82620000D03*
D15*
X93221572Y-82620000D03*
X95761572Y-82620000D03*
X98301572Y-82620000D03*
X100841572Y-82620000D03*
X103381572Y-82620000D03*
X105921572Y-82620000D03*
X108461572Y-82620000D03*
X111001572Y-82620000D03*
X113541572Y-82620000D03*
X113541572Y-75000000D03*
X111001572Y-75000000D03*
X108461572Y-75000000D03*
X105921572Y-75000000D03*
X103381572Y-75000000D03*
X100841572Y-75000000D03*
X98301572Y-75000000D03*
X95761572Y-75000000D03*
X93221572Y-75000000D03*
X90681572Y-75000000D03*
D10*
X96911572Y-142060000D03*
D11*
X96911572Y-134440000D03*
D10*
X104911572Y-322190000D03*
D11*
X104911572Y-329810000D03*
D10*
X171171572Y-142250000D03*
D11*
X171171572Y-134630000D03*
D10*
X220921572Y-162500000D03*
D11*
X220921572Y-154880000D03*
D10*
X200921572Y-162440000D03*
D11*
X200921572Y-154820000D03*
D14*
X193601572Y-135370000D03*
D15*
X196141572Y-135370000D03*
X198681572Y-135370000D03*
X201221572Y-135370000D03*
X203761572Y-135370000D03*
X206301572Y-135370000D03*
X208841572Y-135370000D03*
X211381572Y-135370000D03*
X213921572Y-135370000D03*
X216461572Y-135370000D03*
X216461572Y-127750000D03*
X213921572Y-127750000D03*
X211381572Y-127750000D03*
X208841572Y-127750000D03*
X206301572Y-127750000D03*
X203761572Y-127750000D03*
X201221572Y-127750000D03*
X198681572Y-127750000D03*
X196141572Y-127750000D03*
X193601572Y-127750000D03*
D14*
X132381572Y-295370000D03*
D15*
X134921572Y-295370000D03*
X137461572Y-295370000D03*
X140001572Y-295370000D03*
X142541572Y-295370000D03*
X145081572Y-295370000D03*
X147621572Y-295370000D03*
X150161572Y-295370000D03*
X150161572Y-287750000D03*
X147621572Y-287750000D03*
X145081572Y-287750000D03*
X142541572Y-287750000D03*
X140001572Y-287750000D03*
X137461572Y-287750000D03*
X134921572Y-287750000D03*
X132381572Y-287750000D03*
D12*
X101121572Y-129940000D03*
D13*
X103661572Y-129940000D03*
D14*
X171141572Y-157430000D03*
D15*
X173681572Y-157430000D03*
X176221572Y-157430000D03*
X178761572Y-157430000D03*
X181301572Y-157430000D03*
X183841572Y-157430000D03*
X186381572Y-157430000D03*
X188921572Y-157430000D03*
X191461572Y-157430000D03*
X194001572Y-157430000D03*
X194001572Y-149810000D03*
X191461572Y-149810000D03*
X188921572Y-149810000D03*
X186381572Y-149810000D03*
X183841572Y-149810000D03*
X181301572Y-149810000D03*
X178761572Y-149810000D03*
X176221572Y-149810000D03*
X173681572Y-149810000D03*
X171141572Y-149810000D03*
D10*
X185946572Y-248190000D03*
D11*
X185946572Y-255810000D03*
D12*
X220421572Y-54000000D03*
D13*
X222961572Y-54000000D03*
D12*
X109146572Y-334250000D03*
D13*
X111686572Y-334250000D03*
D12*
X206921572Y-54000000D03*
D13*
X209461572Y-54000000D03*
D12*
X102396572Y-334250000D03*
D13*
X104936572Y-334250000D03*
D10*
X236461572Y-66120000D03*
D11*
X236461572Y-58500000D03*
D10*
X208921572Y-162440000D03*
D11*
X208921572Y-154820000D03*
D12*
X134881572Y-129940000D03*
D13*
X137421572Y-129940000D03*
D10*
X82946572Y-66120000D03*
D11*
X82946572Y-58500000D03*
D12*
X94371572Y-129940000D03*
D13*
X96911572Y-129940000D03*
D12*
X213671572Y-54000000D03*
D13*
X216211572Y-54000000D03*
D12*
X109171572Y-260250000D03*
D13*
X111711572Y-260250000D03*
D12*
X87621572Y-129940000D03*
D13*
X90161572Y-129940000D03*
D12*
X176671572Y-260250000D03*
D13*
X179211572Y-260250000D03*
D10*
X138696572Y-248250000D03*
D11*
X138696572Y-255870000D03*
D10*
X222961572Y-66120000D03*
D11*
X222961572Y-58500000D03*
D14*
X76171572Y-295250000D03*
D15*
X78711572Y-295250000D03*
X81251572Y-295250000D03*
X83791572Y-295250000D03*
X86331572Y-295250000D03*
X88871572Y-295250000D03*
X91411572Y-295250000D03*
X93951572Y-295250000D03*
X96491572Y-295250000D03*
X99031572Y-295250000D03*
X99031572Y-287630000D03*
X96491572Y-287630000D03*
X93951572Y-287630000D03*
X91411572Y-287630000D03*
X88871572Y-287630000D03*
X86331572Y-287630000D03*
X83791572Y-287630000D03*
X81251572Y-287630000D03*
X78711572Y-287630000D03*
X76171572Y-287630000D03*
D14*
X219371572Y-240625000D03*
D15*
X219371572Y-243165000D03*
X219371572Y-245705000D03*
X219371572Y-248245000D03*
X219371572Y-250785000D03*
X219371572Y-253325000D03*
X219371572Y-255865000D03*
X226991572Y-255865000D03*
X226991572Y-253325000D03*
X226991572Y-250785000D03*
X226991572Y-248245000D03*
X226991572Y-245705000D03*
X226991572Y-243165000D03*
X226991572Y-240625000D03*
D14*
X76141572Y-221250000D03*
D15*
X78681572Y-221250000D03*
X81221572Y-221250000D03*
X83761572Y-221250000D03*
X86301572Y-221250000D03*
X88841572Y-221250000D03*
X91381572Y-221250000D03*
X93921572Y-221250000D03*
X96461572Y-221250000D03*
X99001572Y-221250000D03*
X99001572Y-213630000D03*
X96461572Y-213630000D03*
X93921572Y-213630000D03*
X91381572Y-213630000D03*
X88841572Y-213630000D03*
X86301572Y-213630000D03*
X83761572Y-213630000D03*
X81221572Y-213630000D03*
X78681572Y-213630000D03*
X76141572Y-213630000D03*
D12*
X115936572Y-260250000D03*
D13*
X118476572Y-260250000D03*
D10*
X195961572Y-66120000D03*
D11*
X195961572Y-58500000D03*
D12*
X168646572Y-129940000D03*
D13*
X171186572Y-129940000D03*
D12*
X129421572Y-260250000D03*
D13*
X131961572Y-260250000D03*
D10*
X143696572Y-66120000D03*
D11*
X143696572Y-58500000D03*
D10*
X111696572Y-248190000D03*
D11*
X111696572Y-255810000D03*
D12*
X148381572Y-129940000D03*
D13*
X150921572Y-129940000D03*
D12*
X193421572Y-54000000D03*
D13*
X195961572Y-54000000D03*
D14*
X193311572Y-113870000D03*
D15*
X195851572Y-113870000D03*
X198391572Y-113870000D03*
X200931572Y-113870000D03*
X203471572Y-113870000D03*
X206011572Y-113870000D03*
X208551572Y-113870000D03*
X211091572Y-113870000D03*
X213631572Y-113870000D03*
X216171572Y-113870000D03*
X216171572Y-106250000D03*
X213631572Y-106250000D03*
X211091572Y-106250000D03*
X208551572Y-106250000D03*
X206011572Y-106250000D03*
X203471572Y-106250000D03*
X200931572Y-106250000D03*
X198391572Y-106250000D03*
X195851572Y-106250000D03*
X193311572Y-106250000D03*
D14*
X166546572Y-88300000D03*
D15*
X169086572Y-88300000D03*
X171626572Y-88300000D03*
X174166572Y-88300000D03*
X176706572Y-88300000D03*
X179246572Y-88300000D03*
X181786572Y-88300000D03*
X181786572Y-80680000D03*
X179246572Y-80680000D03*
X176706572Y-80680000D03*
X174166572Y-80680000D03*
X171626572Y-80680000D03*
X169086572Y-80680000D03*
X166546572Y-80680000D03*
D10*
X127501572Y-120130000D03*
D11*
X127501572Y-112510000D03*
D14*
X75996572Y-181300000D03*
D15*
X78536572Y-181300000D03*
X81076572Y-181300000D03*
X83616572Y-181300000D03*
X86156572Y-181300000D03*
X88696572Y-181300000D03*
X91236572Y-181300000D03*
X93776572Y-181300000D03*
X96316572Y-181300000D03*
X98856572Y-181300000D03*
X98856572Y-173680000D03*
X96316572Y-173680000D03*
X93776572Y-173680000D03*
X91236572Y-173680000D03*
X88696572Y-173680000D03*
X86156572Y-173680000D03*
X83616572Y-173680000D03*
X81076572Y-173680000D03*
X78536572Y-173680000D03*
X75996572Y-173680000D03*
D10*
X177921572Y-142000000D03*
D11*
X177921572Y-134380000D03*
D12*
X122711572Y-260250000D03*
D13*
X125251572Y-260250000D03*
D16*
X202881572Y-205820000D03*
D17*
X205421572Y-205820000D03*
X202881572Y-203280000D03*
X205421572Y-203280000D03*
X202881572Y-200740000D03*
X205421572Y-200740000D03*
X202881572Y-198200000D03*
X205421572Y-198200000D03*
X202881572Y-195660000D03*
X205421572Y-195660000D03*
X202881572Y-193120000D03*
X205421572Y-193120000D03*
X202881572Y-190580000D03*
X205421572Y-190580000D03*
X202881572Y-188040000D03*
X205421572Y-188040000D03*
X202881572Y-185500000D03*
X205421572Y-185500000D03*
X202881572Y-182960000D03*
X205421572Y-182960000D03*
D12*
X136171572Y-334250000D03*
D13*
X138711572Y-334250000D03*
D12*
X102421572Y-260250000D03*
D13*
X104961572Y-260250000D03*
D10*
X62696572Y-66120000D03*
D11*
X62696572Y-58500000D03*
D10*
X139501572Y-120130000D03*
D11*
X139501572Y-112510000D03*
D10*
X179186572Y-322130000D03*
D11*
X179186572Y-329750000D03*
D14*
X104311572Y-221250000D03*
D15*
X106851572Y-221250000D03*
X109391572Y-221250000D03*
X111931572Y-221250000D03*
X114471572Y-221250000D03*
X117011572Y-221250000D03*
X119551572Y-221250000D03*
X122091572Y-221250000D03*
X124631572Y-221250000D03*
X127171572Y-221250000D03*
X127171572Y-213630000D03*
X124631572Y-213630000D03*
X122091572Y-213630000D03*
X119551572Y-213630000D03*
X117011572Y-213630000D03*
X114471572Y-213630000D03*
X111931572Y-213630000D03*
X109391572Y-213630000D03*
X106851572Y-213630000D03*
X104311572Y-213630000D03*
D14*
X155351572Y-221380000D03*
D15*
X157891572Y-221380000D03*
X160431572Y-221380000D03*
X162971572Y-221380000D03*
X165511572Y-221380000D03*
X168051572Y-221380000D03*
X170591572Y-221380000D03*
X173131572Y-221380000D03*
X173131572Y-213760000D03*
X170591572Y-213760000D03*
X168051572Y-213760000D03*
X165511572Y-213760000D03*
X162971572Y-213760000D03*
X160431572Y-213760000D03*
X157891572Y-213760000D03*
X155351572Y-213760000D03*
D12*
X107871572Y-129940000D03*
D13*
X110411572Y-129940000D03*
D10*
X145486572Y-248250000D03*
D11*
X145486572Y-255870000D03*
D10*
X111686572Y-322190000D03*
D11*
X111686572Y-329810000D03*
D12*
X80871572Y-129940000D03*
D13*
X83411572Y-129940000D03*
D14*
X107866572Y-181300000D03*
D15*
X110406572Y-181300000D03*
X112946572Y-181300000D03*
X115486572Y-181300000D03*
X118026572Y-181300000D03*
X120566572Y-181300000D03*
X123106572Y-181300000D03*
X125646572Y-181300000D03*
X128186572Y-181300000D03*
X130726572Y-181300000D03*
X130726572Y-173680000D03*
X128186572Y-173680000D03*
X125646572Y-173680000D03*
X123106572Y-173680000D03*
X120566572Y-173680000D03*
X118026572Y-173680000D03*
X115486572Y-173680000D03*
X112946572Y-173680000D03*
X110406572Y-173680000D03*
X107866572Y-173680000D03*
D10*
X179196572Y-248190000D03*
D11*
X179196572Y-255810000D03*
D12*
X93931572Y-54000000D03*
D13*
X96471572Y-54000000D03*
D10*
X165686572Y-322190000D03*
D11*
X165686572Y-329810000D03*
D10*
X131986572Y-248190000D03*
D11*
X131986572Y-255810000D03*
D12*
X190161572Y-334250000D03*
D13*
X192701572Y-334250000D03*
D14*
X155341572Y-295500000D03*
D15*
X157881572Y-295500000D03*
X160421572Y-295500000D03*
X162961572Y-295500000D03*
X165501572Y-295500000D03*
X168041572Y-295500000D03*
X170581572Y-295500000D03*
X173121572Y-295500000D03*
X173121572Y-287880000D03*
X170581572Y-287880000D03*
X168041572Y-287880000D03*
X165501572Y-287880000D03*
X162961572Y-287880000D03*
X160421572Y-287880000D03*
X157881572Y-287880000D03*
X155341572Y-287880000D03*
D14*
X142566572Y-157430000D03*
D15*
X145106572Y-157430000D03*
X147646572Y-157430000D03*
X150186572Y-157430000D03*
X152726572Y-157430000D03*
X155266572Y-157430000D03*
X157806572Y-157430000D03*
X160346572Y-157430000D03*
X162886572Y-157430000D03*
X165426572Y-157430000D03*
X165426572Y-149810000D03*
X162886572Y-149810000D03*
X160346572Y-149810000D03*
X157806572Y-149810000D03*
X155266572Y-149810000D03*
X152726572Y-149810000D03*
X150186572Y-149810000D03*
X147646572Y-149810000D03*
X145106572Y-149810000D03*
X142566572Y-149810000D03*
D10*
X104986572Y-248190000D03*
D11*
X104986572Y-255810000D03*
D12*
X169896572Y-334250000D03*
D13*
X172436572Y-334250000D03*
D10*
X204921572Y-162500000D03*
D11*
X204921572Y-154880000D03*
D10*
X152186572Y-322190000D03*
D11*
X152186572Y-329810000D03*
D14*
X90721572Y-95490000D03*
D15*
X93261572Y-95490000D03*
X95801572Y-95490000D03*
X98341572Y-95490000D03*
X100881572Y-95490000D03*
X103421572Y-95490000D03*
X105961572Y-95490000D03*
X108501572Y-95490000D03*
X111041572Y-95490000D03*
X113581572Y-95490000D03*
X113581572Y-87870000D03*
X111041572Y-87870000D03*
X108501572Y-87870000D03*
X105961572Y-87870000D03*
X103421572Y-87870000D03*
X100881572Y-87870000D03*
X98341572Y-87870000D03*
X95801572Y-87870000D03*
X93261572Y-87870000D03*
X90721572Y-87870000D03*
D12*
X120906572Y-54000000D03*
D13*
X123446572Y-54000000D03*
D10*
X216921572Y-162500000D03*
D11*
X216921572Y-154880000D03*
D10*
X152236572Y-248190000D03*
D11*
X152236572Y-255810000D03*
D10*
X185946572Y-322130000D03*
D11*
X185946572Y-329750000D03*
D10*
X228921572Y-162500000D03*
D11*
X228921572Y-154880000D03*
D12*
X114636572Y-129940000D03*
D13*
X117176572Y-129940000D03*
D10*
X224921572Y-162500000D03*
D11*
X224921572Y-154880000D03*
D10*
X158986572Y-248250000D03*
D11*
X158986572Y-255870000D03*
D12*
X154656572Y-54000000D03*
D13*
X157196572Y-54000000D03*
D14*
X128626572Y-109370000D03*
D15*
X131166572Y-109370000D03*
X133706572Y-109370000D03*
X136246572Y-109370000D03*
X138786572Y-109370000D03*
X141326572Y-109370000D03*
X143866572Y-109370000D03*
X146406572Y-109370000D03*
X146406572Y-101750000D03*
X143866572Y-101750000D03*
X141326572Y-101750000D03*
X138786572Y-101750000D03*
X136246572Y-101750000D03*
X133706572Y-101750000D03*
X131166572Y-101750000D03*
X128626572Y-101750000D03*
D12*
X114141572Y-54000000D03*
D13*
X116681572Y-54000000D03*
D14*
X201016572Y-221430000D03*
D15*
X203556572Y-221430000D03*
X206096572Y-221430000D03*
X208636572Y-221430000D03*
X211176572Y-221430000D03*
X213716572Y-221430000D03*
X216256572Y-221430000D03*
X218796572Y-221430000D03*
X218796572Y-213810000D03*
X216256572Y-213810000D03*
X213716572Y-213810000D03*
X211176572Y-213810000D03*
X208636572Y-213810000D03*
X206096572Y-213810000D03*
X203556572Y-213810000D03*
X201016572Y-213810000D03*
D14*
X168496572Y-181120000D03*
D15*
X171036572Y-181120000D03*
X173576572Y-181120000D03*
X176116572Y-181120000D03*
X178656572Y-181120000D03*
X181196572Y-181120000D03*
X183736572Y-181120000D03*
X186276572Y-181120000D03*
X188816572Y-181120000D03*
X191356572Y-181120000D03*
X191356572Y-173500000D03*
X188816572Y-173500000D03*
X186276572Y-173500000D03*
X183736572Y-173500000D03*
X181196572Y-173500000D03*
X178656572Y-173500000D03*
X176116572Y-173500000D03*
X173576572Y-173500000D03*
X171036572Y-173500000D03*
X168496572Y-173500000D03*
D12*
X182131572Y-129940000D03*
D13*
X184671572Y-129940000D03*
D14*
X93301572Y-108940000D03*
D15*
X95841572Y-108940000D03*
X98381572Y-108940000D03*
X100921572Y-108940000D03*
X103461572Y-108940000D03*
X106001572Y-108940000D03*
X108541572Y-108940000D03*
X111081572Y-108940000D03*
X111081572Y-101320000D03*
X108541572Y-101320000D03*
X106001572Y-101320000D03*
X103461572Y-101320000D03*
X100921572Y-101320000D03*
X98381572Y-101320000D03*
X95841572Y-101320000D03*
X93301572Y-101320000D03*
D10*
X88331572Y-120190000D03*
D11*
X88331572Y-112570000D03*
D10*
X118446572Y-248190000D03*
D11*
X118446572Y-255810000D03*
D14*
X206046572Y-151740000D03*
D15*
X208586572Y-151740000D03*
X211126572Y-151740000D03*
X213666572Y-151740000D03*
X216206572Y-151740000D03*
X218746572Y-151740000D03*
X221286572Y-151740000D03*
X223826572Y-151740000D03*
X223826572Y-144120000D03*
X221286572Y-144120000D03*
X218746572Y-144120000D03*
X216206572Y-144120000D03*
X213666572Y-144120000D03*
X211126572Y-144120000D03*
X208586572Y-144120000D03*
X206046572Y-144120000D03*
D10*
X199446572Y-248250000D03*
D11*
X199446572Y-255870000D03*
D10*
X150446572Y-66120000D03*
D11*
X150446572Y-58500000D03*
D10*
X212921572Y-162500000D03*
D11*
X212921572Y-154880000D03*
D10*
X199446572Y-322130000D03*
D11*
X199446572Y-329750000D03*
D10*
X151501572Y-120130000D03*
D11*
X151501572Y-112510000D03*
D10*
X165736572Y-248250000D03*
D11*
X165736572Y-255870000D03*
D10*
X172411572Y-322130000D03*
D11*
X172411572Y-329750000D03*
D14*
X89606572Y-327000000D03*
D18*
X92106572Y-327000000D03*
D10*
X189211572Y-66120000D03*
D11*
X189211572Y-58500000D03*
D12*
X100681572Y-54000000D03*
D13*
X103221572Y-54000000D03*
D14*
X219371572Y-261915000D03*
D15*
X219371572Y-264455000D03*
X219371572Y-266995000D03*
X219371572Y-269535000D03*
X219371572Y-272075000D03*
X219371572Y-274615000D03*
X219371572Y-277155000D03*
X226991572Y-277155000D03*
X226991572Y-274615000D03*
X226991572Y-272075000D03*
X226991572Y-269535000D03*
X226991572Y-266995000D03*
X226991572Y-264455000D03*
X226991572Y-261915000D03*
D14*
X237861572Y-80760000D03*
D15*
X235321572Y-80760000D03*
X232781572Y-80760000D03*
X230241572Y-80760000D03*
X227701572Y-80760000D03*
X225161572Y-80760000D03*
X222621572Y-80760000D03*
X220081572Y-80760000D03*
X217541572Y-80760000D03*
X215001572Y-80760000D03*
X212461572Y-80760000D03*
X209921572Y-80760000D03*
X207381572Y-80760000D03*
X204841572Y-80760000D03*
X202301572Y-80760000D03*
X199761572Y-80760000D03*
X199761572Y-96000000D03*
X202301572Y-96000000D03*
X204841572Y-96000000D03*
X207381572Y-96000000D03*
X209921572Y-96000000D03*
X212461572Y-96000000D03*
X215001572Y-96000000D03*
X217541572Y-96000000D03*
X220081572Y-96000000D03*
X222621572Y-96000000D03*
X225161572Y-96000000D03*
X227701572Y-96000000D03*
X230241572Y-96000000D03*
X232781572Y-96000000D03*
X235321572Y-96000000D03*
X237861572Y-96000000D03*
D18*
X89661572Y-319750000D03*
X92161572Y-319750000D03*
D12*
X163146572Y-334250000D03*
D13*
X165686572Y-334250000D03*
D14*
X125761572Y-82620000D03*
D15*
X128301572Y-82620000D03*
X130841572Y-82620000D03*
X133381572Y-82620000D03*
X135921572Y-82620000D03*
X138461572Y-82620000D03*
X141001572Y-82620000D03*
X143541572Y-82620000D03*
X146081572Y-82620000D03*
X148621572Y-82620000D03*
X148621572Y-75000000D03*
X146081572Y-75000000D03*
X143541572Y-75000000D03*
X141001572Y-75000000D03*
X138461572Y-75000000D03*
X135921572Y-75000000D03*
X133381572Y-75000000D03*
X130841572Y-75000000D03*
X128301572Y-75000000D03*
X125761572Y-75000000D03*
D10*
X138696572Y-322190000D03*
D11*
X138696572Y-329810000D03*
D10*
X136946572Y-66120000D03*
D11*
X136946572Y-58500000D03*
D14*
X110366572Y-158300000D03*
D15*
X112906572Y-158300000D03*
X115446572Y-158300000D03*
X117986572Y-158300000D03*
X120526572Y-158300000D03*
X123066572Y-158300000D03*
X125606572Y-158300000D03*
X128146572Y-158300000D03*
X130686572Y-158300000D03*
X133226572Y-158300000D03*
X133226572Y-150680000D03*
X130686572Y-150680000D03*
X128146572Y-150680000D03*
X125606572Y-150680000D03*
X123066572Y-150680000D03*
X120526572Y-150680000D03*
X117986572Y-150680000D03*
X115446572Y-150680000D03*
X112906572Y-150680000D03*
X110366572Y-150680000D03*
D10*
X163946572Y-66120000D03*
D11*
X163946572Y-58500000D03*
D10*
X83411572Y-142060000D03*
D11*
X83411572Y-134440000D03*
D12*
X203646572Y-334250000D03*
D13*
X206186572Y-334250000D03*
D12*
X66946572Y-54000000D03*
D13*
X69486572Y-54000000D03*
D10*
X92331572Y-120060000D03*
D11*
X92331572Y-112440000D03*
D12*
X73696572Y-54000000D03*
D13*
X76236572Y-54000000D03*
D14*
X60786572Y-82430000D03*
D15*
X63326572Y-82430000D03*
X65866572Y-82430000D03*
X68406572Y-82430000D03*
X70946572Y-82430000D03*
X73486572Y-82430000D03*
X76026572Y-82430000D03*
X78566572Y-82430000D03*
X81106572Y-82430000D03*
X83646572Y-82430000D03*
X83646572Y-74810000D03*
X81106572Y-74810000D03*
X78566572Y-74810000D03*
X76026572Y-74810000D03*
X73486572Y-74810000D03*
X70946572Y-74810000D03*
X68406572Y-74810000D03*
X65866572Y-74810000D03*
X63326572Y-74810000D03*
X60786572Y-74810000D03*
D10*
X96446572Y-66120000D03*
D11*
X96446572Y-58500000D03*
D14*
X125931572Y-95620000D03*
D15*
X128471572Y-95620000D03*
X131011572Y-95620000D03*
X133551572Y-95620000D03*
X136091572Y-95620000D03*
X138631572Y-95620000D03*
X141171572Y-95620000D03*
X143711572Y-95620000D03*
X146251572Y-95620000D03*
X148791572Y-95620000D03*
X148791572Y-88000000D03*
X146251572Y-88000000D03*
X143711572Y-88000000D03*
X141171572Y-88000000D03*
X138631572Y-88000000D03*
X136091572Y-88000000D03*
X133551572Y-88000000D03*
X131011572Y-88000000D03*
X128471572Y-88000000D03*
X125931572Y-88000000D03*
D12*
X60171572Y-54000000D03*
D13*
X62711572Y-54000000D03*
D12*
X227171572Y-54000000D03*
D13*
X229711572Y-54000000D03*
D10*
X123446572Y-66120000D03*
D11*
X123446572Y-58500000D03*
D14*
X178141572Y-221380000D03*
D15*
X180681572Y-221380000D03*
X183221572Y-221380000D03*
X185761572Y-221380000D03*
X188301572Y-221380000D03*
X190841572Y-221380000D03*
X193381572Y-221380000D03*
X195921572Y-221380000D03*
X195921572Y-213760000D03*
X193381572Y-213760000D03*
X190841572Y-213760000D03*
X188301572Y-213760000D03*
X185761572Y-213760000D03*
X183221572Y-213760000D03*
X180681572Y-213760000D03*
X178141572Y-213760000D03*
D10*
X158936572Y-322190000D03*
D11*
X158936572Y-329810000D03*
D14*
X104381572Y-295370000D03*
D15*
X106921572Y-295370000D03*
X109461572Y-295370000D03*
X112001572Y-295370000D03*
X114541572Y-295370000D03*
X117081572Y-295370000D03*
X119621572Y-295370000D03*
X122161572Y-295370000D03*
X124701572Y-295370000D03*
X127241572Y-295370000D03*
X127241572Y-287750000D03*
X124701572Y-287750000D03*
X122161572Y-287750000D03*
X119621572Y-287750000D03*
X117081572Y-287750000D03*
X114541572Y-287750000D03*
X112001572Y-287750000D03*
X109461572Y-287750000D03*
X106921572Y-287750000D03*
X104381572Y-287750000D03*
D14*
X207546572Y-174800000D03*
D15*
X210086572Y-174800000D03*
X212626572Y-174800000D03*
X215166572Y-174800000D03*
X217706572Y-174800000D03*
X220246572Y-174800000D03*
X222786572Y-174800000D03*
X222786572Y-167180000D03*
X220246572Y-167180000D03*
X217706572Y-167180000D03*
X215166572Y-167180000D03*
X212626572Y-167180000D03*
X210086572Y-167180000D03*
X207546572Y-167180000D03*
D12*
X134391572Y-54000000D03*
D13*
X136931572Y-54000000D03*
D10*
X123501572Y-120130000D03*
D11*
X123501572Y-112510000D03*
D10*
X112331572Y-120120000D03*
D11*
X112331572Y-112500000D03*
D14*
X166546572Y-103550000D03*
D15*
X169086572Y-103550000D03*
X171626572Y-103550000D03*
X174166572Y-103550000D03*
X176706572Y-103550000D03*
X179246572Y-103550000D03*
X181786572Y-103550000D03*
X181786572Y-95930000D03*
X179246572Y-95930000D03*
X176706572Y-95930000D03*
X174166572Y-95930000D03*
X171626572Y-95930000D03*
X169086572Y-95930000D03*
X166546572Y-95930000D03*
D12*
X142936572Y-260250000D03*
D13*
X145476572Y-260250000D03*
D12*
X141631572Y-129940000D03*
D13*
X144171572Y-129940000D03*
D10*
X76196572Y-66120000D03*
D11*
X76196572Y-58500000D03*
D14*
X78546572Y-158300000D03*
D15*
X81086572Y-158300000D03*
X83626572Y-158300000D03*
X86166572Y-158300000D03*
X88706572Y-158300000D03*
X91246572Y-158300000D03*
X93786572Y-158300000D03*
X96326572Y-158300000D03*
X98866572Y-158300000D03*
X101406572Y-158300000D03*
X101406572Y-150680000D03*
X98866572Y-150680000D03*
X96326572Y-150680000D03*
X93786572Y-150680000D03*
X91246572Y-150680000D03*
X88706572Y-150680000D03*
X86166572Y-150680000D03*
X83626572Y-150680000D03*
X81086572Y-150680000D03*
X78546572Y-150680000D03*
D12*
X156396572Y-334250000D03*
D13*
X158936572Y-334250000D03*
D12*
X169921572Y-260250000D03*
D13*
X172461572Y-260250000D03*
D12*
X203711572Y-260250000D03*
D13*
X206251572Y-260250000D03*
D10*
X202711572Y-66120000D03*
D11*
X202711572Y-58500000D03*
D10*
X157196572Y-66120000D03*
D11*
X157196572Y-58500000D03*
D12*
X176646572Y-334250000D03*
D13*
X179186572Y-334250000D03*
D10*
X192736572Y-248250000D03*
D11*
X192736572Y-255870000D03*
D10*
X103196572Y-66120000D03*
D11*
X103196572Y-58500000D03*
D12*
X155146572Y-129940000D03*
D13*
X157686572Y-129940000D03*
D12*
X122671572Y-334250000D03*
D13*
X125211572Y-334250000D03*
D12*
X136211572Y-260250000D03*
D13*
X138751572Y-260250000D03*
D12*
X127641572Y-54000000D03*
D13*
X130181572Y-54000000D03*
D10*
X130661572Y-142060000D03*
D11*
X130661572Y-134440000D03*
D14*
X132391572Y-221250000D03*
D15*
X134931572Y-221250000D03*
X137471572Y-221250000D03*
X140011572Y-221250000D03*
X142551572Y-221250000D03*
X145091572Y-221250000D03*
X147631572Y-221250000D03*
X150171572Y-221250000D03*
X150171572Y-213630000D03*
X147631572Y-213630000D03*
X145091572Y-213630000D03*
X142551572Y-213630000D03*
X140011572Y-213630000D03*
X137471572Y-213630000D03*
X134931572Y-213630000D03*
X132391572Y-213630000D03*
D10*
X118446572Y-322190000D03*
D11*
X118446572Y-329810000D03*
D10*
X125196572Y-322190000D03*
D11*
X125196572Y-329810000D03*
D10*
X192696572Y-322190000D03*
D11*
X192696572Y-329810000D03*
D12*
X163171572Y-260250000D03*
D13*
X165711572Y-260250000D03*
D12*
X183396572Y-334250000D03*
D13*
X185936572Y-334250000D03*
D10*
X100331572Y-120060000D03*
D11*
X100331572Y-112440000D03*
D10*
X96331572Y-120060000D03*
D11*
X96331572Y-112440000D03*
M02*
