M48
; DRILL file {KiCad 8.0.2} date 2024-05-23T11:52:56+0200
; FORMAT={-:-/ absolute / metric / decimal}
; #@! TF.CreationDate,2024-05-23T11:52:56+02:00
; #@! TF.GenerationSoftware,Kicad,Pcbnew,8.0.2
; #@! TF.FileFunction,Plated,1,2,PTH
FMAT,2
METRIC
; #@! TA.AperFunction,Plated,PTH,ViaDrill
T1C0.300
; #@! TA.AperFunction,Plated,PTH,ComponentDrill
T2C0.700
; #@! TA.AperFunction,Plated,PTH,ComponentDrill
T3C0.800
; #@! TA.AperFunction,Plated,PTH,ComponentDrill
T4C0.900
; #@! TA.AperFunction,Plated,PTH,ComponentDrill
T5C1.000
%
G90
G05
T1
X60.0Y-81.0
X62.0Y-62.5
X64.25Y-99.5
X64.25Y-132.0
X64.25Y-165.25
X64.25Y-203.25
X64.25Y-245.5
X64.25Y-285.75
X64.25Y-324.5
X82.0Y-338.75
X83.75Y-62.5
X85.75Y-154.5
X85.75Y-185.5
X85.75Y-225.25
X85.75Y-263.25
X89.0Y-242.25
X89.25Y-311.75
X89.5Y-144.0
X90.0Y-281.75
X92.25Y-119.25
X93.5Y-79.75
X94.0Y-116.0
X94.0Y-148.0
X95.75Y-206.0
X95.75Y-272.25
X97.0Y-210.25
X97.0Y-219.0
X97.75Y-196.75
X97.75Y-216.0
X101.0Y-137.25
X101.312Y-149.925
X101.75Y-242.25
X102.74Y-151.49
X103.5Y-147.75
X103.75Y-218.0
X104.648Y-221.102
X105.0Y-227.0
X106.0Y-62.5
X107.575Y-195.416
X108.25Y-125.5
X109.25Y-221.485
X110.023Y-226.25
X110.25Y-160.0
X111.25Y-334.25
X111.925Y-327.455
X112.5Y-184.5
X116.25Y-253.625
X116.273Y-327.805
X116.5Y-147.75
X117.0Y-150.1
X118.75Y-148.75
X119.925Y-326.63
X120.125Y-280.875
X120.5Y-217.75
X121.0Y-267.25
X121.0Y-273.25
X122.968Y-255.0
X124.021Y-149.925
X125.057Y-252.557
X127.25Y-126.25
X127.25Y-132.25
X127.75Y-139.5
X127.75Y-150.25
X128.875Y-148.875
X130.5Y-182.25
X130.5Y-225.25
X131.0Y-334.5
X131.25Y-148.0
X131.5Y-89.5
X132.465Y-255.03
X132.5Y-62.5
X134.095Y-235.405
X135.0Y-243.25
X135.75Y-216.0
X136.5Y-120.575
X137.25Y-225.25
X137.75Y-124.0
X138.25Y-196.0
X139.0Y-149.25
X139.75Y-197.5
X141.5Y-204.75
X142.0Y-120.13
X142.555Y-252.01
X143.25Y-126.25
X143.25Y-137.0
X143.425Y-150.25
X143.5Y-316.5
X144.0Y-221.5
X144.081Y-148.844
X145.0Y-230.25
X145.0Y-283.25
X146.0Y-227.25
X146.0Y-231.75
X146.25Y-148.75
X146.625Y-121.825
X147.5Y-227.25
X148.675Y-194.925
X148.75Y-147.75
X149.661Y-122.517
X150.0Y-255.25
X150.625Y-150.625
X150.658Y-277.185
X152.0Y-149.25
X152.5Y-154.5
X153.019Y-211.853
X154.0Y-266.25
X154.25Y-183.0
X154.575Y-150.75
X154.625Y-227.125
X155.75Y-62.5
X156.5Y-128.0
X156.5Y-132.5
X156.5Y-225.25
X157.25Y-154.0
X158.0Y-291.25
X158.5Y-308.0
X158.75Y-237.5
X161.25Y-120.5
X161.5Y-215.25
X161.5Y-226.55
X161.675Y-229.205
X162.25Y-284.5
X164.945Y-171.575
X167.35Y-150.5
X168.25Y-117.25
X168.5Y-230.5
X168.5Y-241.75
X168.5Y-246.25
X168.75Y-222.75
X169.0Y-149.25
X169.0Y-196.5
X169.75Y-127.0
X169.75Y-132.0
X170.75Y-214.25
X170.984Y-229.234
X171.5Y-316.5
X171.75Y-151.5
X172.25Y-120.5
X172.25Y-222.25
X173.325Y-157.25
X174.25Y-101.25
X174.25Y-196.5
X174.25Y-216.5
X174.25Y-239.25
X174.431Y-219.047
X174.779Y-217.742
X175.25Y-220.175
X175.75Y-184.0
X176.335Y-150.575
X176.75Y-157.5
X178.991Y-149.491
X179.25Y-335.0
X180.75Y-196.25
X181.0Y-128.75
X182.5Y-62.5
X182.5Y-271.0
X182.75Y-220.75
X183.0Y-117.75
X183.75Y-153.25
X183.75Y-216.75
X183.75Y-266.75
X187.035Y-257.035
X187.045Y-222.28
X187.25Y-266.75
X187.5Y-262.75
X190.234Y-117.766
X190.422Y-130.868
X191.0Y-264.0
X191.025Y-234.5
X191.713Y-131.5
X192.925Y-194.455
X194.032Y-125.218
X194.175Y-193.13
X195.425Y-198.705
X195.75Y-238.75
X196.75Y-209.75
X197.131Y-199.749
X200.0Y-219.75
X200.0Y-242.0
X200.25Y-151.25
X200.75Y-118.5
X202.0Y-195.0
X204.5Y-62.5
X205.169Y-322.331
X205.25Y-255.25
X205.5Y-91.5
X206.434Y-253.259
X206.843Y-313.092
X207.25Y-109.75
X207.75Y-183.17
X209.25Y-184.25
X209.75Y-317.75
X210.0Y-95.5
X210.0Y-107.75
X210.0Y-195.0
X211.75Y-221.773
X212.5Y-130.25
X212.5Y-275.0
X213.25Y-167.0
X214.25Y-254.25
X214.737Y-173.737
X217.108Y-178.108
X217.108Y-183.17
X218.5Y-82.25
X226.25Y-66.0
X237.75Y-131.5
X237.75Y-154.0
X237.75Y-179.5
X237.75Y-207.5
X237.75Y-237.25
X237.75Y-270.25
X237.75Y-302.5
X237.75Y-328.75
X238.5Y-74.25
X238.75Y-97.25
T2
X103.425Y-294.632
X103.425Y-302.252
X110.175Y-294.692
X110.175Y-302.312
X116.925Y-294.692
X116.925Y-302.312
X117.715Y-102.895
X117.715Y-110.515
X123.675Y-294.632
X123.675Y-302.252
X124.465Y-102.835
X124.465Y-110.455
X130.425Y-294.692
X130.425Y-302.312
X131.215Y-103.085
X131.215Y-110.705
X137.175Y-294.692
X137.175Y-302.312
X137.965Y-102.955
X137.965Y-110.575
X143.925Y-294.692
X143.925Y-302.312
X144.715Y-102.895
X144.715Y-110.515
X150.675Y-294.692
X150.675Y-302.312
X151.465Y-102.895
X151.465Y-110.515
X158.215Y-103.085
X158.215Y-110.705
X161.425Y-75.692
X161.425Y-83.312
X164.965Y-102.955
X164.965Y-110.575
X166.91Y-294.705
X166.91Y-302.325
X168.175Y-75.442
X168.175Y-83.062
X173.66Y-294.705
X173.66Y-302.325
X174.925Y-75.442
X174.925Y-83.062
X180.41Y-294.705
X180.41Y-302.325
X181.675Y-75.442
X181.675Y-83.062
X187.16Y-294.705
X187.16Y-302.325
X188.425Y-75.442
X188.425Y-83.062
X193.91Y-294.705
X193.91Y-302.325
X195.175Y-75.442
X195.175Y-83.062
X200.66Y-294.705
X200.66Y-302.325
X201.925Y-75.442
X201.925Y-83.062
X207.41Y-294.705
X207.41Y-302.325
X208.675Y-75.442
X208.675Y-83.062
X214.16Y-294.705
X214.16Y-302.325
T3
X84.675Y-126.12
X84.675Y-128.66
X84.675Y-131.2
X84.675Y-133.74
X84.675Y-136.28
X84.675Y-138.82
X84.675Y-141.36
X84.675Y-143.9
X85.135Y-96.955
X85.135Y-104.575
X87.675Y-96.955
X87.675Y-104.575
X90.215Y-96.955
X90.215Y-104.575
X92.295Y-126.12
X92.295Y-128.66
X92.295Y-131.2
X92.295Y-133.74
X92.295Y-136.28
X92.295Y-138.82
X92.295Y-141.36
X92.295Y-143.9
X92.755Y-96.955
X92.755Y-104.575
X95.295Y-96.955
X95.295Y-104.575
X96.595Y-177.04
X96.595Y-179.58
X96.595Y-182.12
X96.595Y-184.66
X96.595Y-187.2
X96.595Y-189.74
X96.595Y-192.28
X96.795Y-154.04
X96.795Y-156.58
X96.795Y-159.12
X96.795Y-161.66
X96.795Y-164.2
X96.795Y-166.74
X96.795Y-169.28
X97.675Y-126.215
X97.675Y-128.755
X97.675Y-131.295
X97.675Y-133.835
X97.675Y-136.375
X97.675Y-138.915
X97.675Y-141.455
X97.675Y-143.995
X97.835Y-96.955
X97.835Y-104.575
X100.375Y-96.955
X100.375Y-104.575
X100.425Y-259.085
X100.425Y-266.705
X100.425Y-273.585
X100.425Y-281.205
X102.915Y-96.955
X102.915Y-104.575
X102.965Y-259.085
X102.965Y-266.705
X102.965Y-273.585
X102.965Y-281.205
X104.215Y-177.04
X104.215Y-179.58
X104.215Y-182.12
X104.215Y-184.66
X104.215Y-187.2
X104.215Y-189.74
X104.215Y-192.28
X104.415Y-154.04
X104.415Y-156.58
X104.415Y-159.12
X104.415Y-161.66
X104.415Y-164.2
X104.415Y-166.74
X104.415Y-169.28
X105.295Y-126.215
X105.295Y-128.755
X105.295Y-131.295
X105.295Y-133.835
X105.295Y-136.375
X105.295Y-138.915
X105.295Y-141.455
X105.295Y-143.995
X105.455Y-96.955
X105.455Y-104.575
X105.505Y-259.085
X105.505Y-266.705
X105.505Y-273.585
X105.505Y-281.205
X106.995Y-199.42
X106.995Y-201.96
X106.995Y-204.5
X106.995Y-207.04
X106.995Y-209.58
X106.995Y-212.12
X106.995Y-214.66
X107.995Y-96.955
X107.995Y-104.575
X108.045Y-259.085
X108.045Y-266.705
X108.045Y-273.585
X108.045Y-281.205
X110.585Y-259.085
X110.585Y-266.705
X110.585Y-273.585
X110.585Y-281.205
X110.625Y-126.175
X110.625Y-128.715
X110.625Y-131.255
X110.625Y-133.795
X110.625Y-136.335
X110.625Y-138.875
X110.625Y-141.415
X110.625Y-143.955
X113.125Y-259.085
X113.125Y-266.705
X113.125Y-273.585
X113.125Y-281.205
X113.435Y-312.335
X113.435Y-319.955
X114.615Y-199.42
X114.615Y-201.96
X114.615Y-204.5
X114.615Y-207.04
X114.615Y-209.58
X114.615Y-212.12
X114.615Y-214.66
X115.665Y-259.085
X115.665Y-266.705
X115.665Y-273.585
X115.665Y-281.205
X115.685Y-227.425
X115.685Y-229.965
X115.685Y-232.505
X115.685Y-235.045
X115.685Y-237.585
X115.685Y-240.125
X115.685Y-242.665
X115.975Y-312.335
X115.975Y-319.955
X117.425Y-154.125
X117.425Y-156.665
X117.425Y-159.205
X117.425Y-161.745
X117.425Y-164.285
X117.425Y-166.825
X117.425Y-169.365
X117.425Y-177.125
X117.425Y-179.665
X117.425Y-182.205
X117.425Y-184.745
X117.425Y-187.285
X117.425Y-189.825
X117.425Y-192.365
X118.245Y-126.175
X118.245Y-128.715
X118.245Y-131.255
X118.245Y-133.795
X118.245Y-136.335
X118.245Y-138.875
X118.245Y-141.415
X118.245Y-143.955
X118.515Y-312.335
X118.515Y-319.955
X121.055Y-312.335
X121.055Y-319.955
X123.305Y-126.175
X123.305Y-128.715
X123.305Y-131.255
X123.305Y-133.795
X123.305Y-136.335
X123.305Y-138.875
X123.305Y-141.415
X123.305Y-143.955
X123.305Y-227.425
X123.305Y-229.965
X123.305Y-232.505
X123.305Y-235.045
X123.305Y-237.585
X123.305Y-240.125
X123.305Y-242.665
X123.595Y-312.335
X123.595Y-319.955
X125.045Y-154.125
X125.045Y-156.665
X125.045Y-159.205
X125.045Y-161.745
X125.045Y-164.285
X125.045Y-166.825
X125.045Y-169.365
X125.045Y-177.125
X125.045Y-179.665
X125.045Y-182.205
X125.045Y-184.745
X125.045Y-187.285
X125.045Y-189.825
X125.045Y-192.365
X126.135Y-312.335
X126.135Y-319.955
X127.385Y-259.085
X127.385Y-266.705
X127.435Y-273.585
X127.435Y-281.205
X128.64Y-69.5
X128.64Y-77.12
X128.675Y-312.335
X128.675Y-319.955
X129.925Y-259.085
X129.925Y-266.705
X129.975Y-273.585
X129.975Y-281.205
X130.925Y-126.175
X130.925Y-128.715
X130.925Y-131.255
X130.925Y-133.795
X130.925Y-136.335
X130.925Y-138.875
X130.925Y-141.415
X130.925Y-143.955
X131.18Y-69.5
X131.18Y-77.12
X131.215Y-312.335
X131.215Y-319.955
X132.465Y-259.085
X132.465Y-266.705
X132.515Y-273.585
X132.515Y-281.205
X133.72Y-69.5
X133.72Y-77.12
X133.755Y-312.335
X133.755Y-319.955
X135.005Y-259.085
X135.005Y-266.705
X135.055Y-273.585
X135.055Y-281.205
X136.26Y-69.5
X136.26Y-77.12
X136.295Y-312.335
X136.295Y-319.955
X137.545Y-259.085
X137.545Y-266.705
X137.595Y-273.585
X137.595Y-281.205
X138.8Y-69.5
X138.8Y-77.12
X140.085Y-259.085
X140.085Y-266.705
X140.135Y-273.585
X140.135Y-281.205
X140.175Y-126.215
X140.175Y-128.755
X140.175Y-131.295
X140.175Y-133.835
X140.175Y-136.375
X140.175Y-138.915
X140.175Y-141.455
X140.175Y-143.995
X141.34Y-69.5
X141.34Y-77.12
X141.555Y-177.125
X141.555Y-179.665
X141.555Y-182.205
X141.555Y-184.745
X141.555Y-187.285
X141.555Y-189.825
X141.555Y-192.365
X141.75Y-154.33
X141.75Y-156.87
X141.75Y-159.41
X141.75Y-161.95
X141.75Y-164.49
X141.75Y-167.03
X141.75Y-169.57
X142.555Y-227.465
X142.555Y-230.005
X142.555Y-232.545
X142.555Y-235.085
X142.555Y-237.625
X142.555Y-240.165
X142.555Y-242.705
X142.625Y-259.085
X142.625Y-266.705
X142.675Y-273.585
X142.675Y-281.205
X143.88Y-69.5
X143.88Y-77.12
X146.42Y-69.5
X146.42Y-77.12
X147.795Y-126.215
X147.795Y-128.755
X147.795Y-131.295
X147.795Y-133.835
X147.795Y-136.375
X147.795Y-138.915
X147.795Y-141.455
X147.795Y-143.995
X148.96Y-69.5
X148.96Y-77.12
X149.175Y-177.125
X149.175Y-179.665
X149.175Y-182.205
X149.175Y-184.745
X149.175Y-187.285
X149.175Y-189.825
X149.175Y-192.365
X149.37Y-154.33
X149.37Y-156.87
X149.37Y-159.41
X149.37Y-161.95
X149.37Y-164.49
X149.37Y-167.03
X149.37Y-169.57
X150.175Y-227.465
X150.175Y-230.005
X150.175Y-232.545
X150.175Y-235.085
X150.175Y-237.625
X150.175Y-240.165
X150.175Y-242.705
X151.045Y-199.465
X151.045Y-202.005
X151.045Y-204.545
X151.045Y-207.085
X151.045Y-209.625
X151.045Y-212.165
X151.045Y-214.705
X151.5Y-69.5
X151.5Y-77.12
X153.055Y-126.305
X153.055Y-128.845
X153.055Y-131.385
X153.055Y-133.925
X153.055Y-136.465
X153.055Y-139.005
X153.055Y-141.545
X153.055Y-144.085
X158.665Y-199.465
X158.665Y-202.005
X158.665Y-204.545
X158.665Y-207.085
X158.665Y-209.625
X158.665Y-212.165
X158.665Y-214.705
X160.675Y-126.305
X160.675Y-128.845
X160.675Y-131.385
X160.675Y-133.925
X160.675Y-136.465
X160.675Y-139.005
X160.675Y-141.545
X160.675Y-144.085
X161.055Y-154.675
X161.055Y-157.215
X161.055Y-159.755
X161.055Y-162.295
X161.055Y-164.835
X161.055Y-167.375
X161.055Y-169.915
X161.175Y-176.965
X161.175Y-179.505
X161.175Y-182.045
X161.175Y-184.585
X161.175Y-187.125
X161.175Y-189.665
X161.175Y-192.205
X163.885Y-273.635
X163.885Y-281.255
X163.925Y-259.085
X163.925Y-266.705
X165.675Y-126.305
X165.675Y-128.845
X165.675Y-131.385
X165.675Y-133.925
X165.675Y-136.465
X165.675Y-139.005
X165.675Y-141.545
X165.675Y-144.085
X166.425Y-273.635
X166.425Y-281.255
X166.465Y-259.085
X166.465Y-266.705
X168.675Y-154.675
X168.675Y-157.215
X168.675Y-159.755
X168.675Y-162.295
X168.675Y-164.835
X168.675Y-167.375
X168.675Y-169.915
X168.795Y-176.965
X168.795Y-179.505
X168.795Y-182.045
X168.795Y-184.585
X168.795Y-187.125
X168.795Y-189.665
X168.795Y-192.205
X168.965Y-273.635
X168.965Y-281.255
X169.005Y-259.085
X169.005Y-266.705
X171.505Y-273.635
X171.505Y-281.255
X171.545Y-259.085
X171.545Y-266.705
X173.295Y-126.305
X173.295Y-128.845
X173.295Y-131.385
X173.295Y-133.925
X173.295Y-136.465
X173.295Y-139.005
X173.295Y-141.545
X173.295Y-144.085
X174.045Y-273.635
X174.045Y-281.255
X174.085Y-259.085
X174.085Y-266.705
X176.585Y-273.635
X176.585Y-281.255
X176.625Y-259.085
X176.625Y-266.705
X177.0Y-312.455
X177.0Y-320.075
X178.555Y-126.385
X178.555Y-128.925
X178.555Y-131.465
X178.555Y-134.005
X178.555Y-136.545
X178.555Y-139.085
X178.555Y-141.625
X178.555Y-144.165
X179.125Y-273.635
X179.125Y-281.255
X179.165Y-259.085
X179.165Y-266.705
X179.425Y-229.795
X179.425Y-232.335
X179.425Y-234.875
X179.425Y-237.415
X179.425Y-239.955
X179.425Y-242.495
X179.425Y-245.035
X179.54Y-312.455
X179.54Y-320.075
X179.555Y-199.505
X179.555Y-202.045
X179.555Y-204.585
X179.555Y-207.125
X179.555Y-209.665
X179.555Y-212.205
X179.555Y-214.745
X180.13Y-98.38
X180.13Y-100.92
X180.13Y-103.46
X180.13Y-106.0
X180.13Y-108.54
X180.13Y-111.08
X180.13Y-113.62
X180.175Y-154.715
X180.175Y-157.255
X180.175Y-159.795
X180.175Y-162.335
X180.175Y-164.875
X180.175Y-167.415
X180.175Y-169.955
X180.175Y-176.915
X180.175Y-179.455
X180.175Y-181.995
X180.175Y-184.535
X180.175Y-187.075
X180.175Y-189.615
X180.175Y-192.155
X182.08Y-312.455
X182.08Y-320.075
X184.62Y-312.455
X184.62Y-320.075
X186.175Y-126.385
X186.175Y-128.925
X186.175Y-131.465
X186.175Y-134.005
X186.175Y-136.545
X186.175Y-139.085
X186.175Y-141.625
X186.175Y-144.165
X187.045Y-229.795
X187.045Y-232.335
X187.045Y-234.875
X187.045Y-237.415
X187.045Y-239.955
X187.045Y-242.495
X187.045Y-245.035
X187.16Y-312.455
X187.16Y-320.075
X187.175Y-199.505
X187.175Y-202.045
X187.175Y-204.585
X187.175Y-207.125
X187.175Y-209.665
X187.175Y-212.205
X187.175Y-214.745
X187.75Y-98.38
X187.75Y-100.92
X187.75Y-103.46
X187.75Y-106.0
X187.75Y-108.54
X187.75Y-111.08
X187.75Y-113.62
X187.795Y-154.715
X187.795Y-157.255
X187.795Y-159.795
X187.795Y-162.335
X187.795Y-164.875
X187.795Y-167.415
X187.795Y-169.955
X187.795Y-176.915
X187.795Y-179.455
X187.795Y-181.995
X187.795Y-184.535
X187.795Y-187.075
X187.795Y-189.615
X187.795Y-192.155
X189.7Y-312.455
X189.7Y-320.075
X190.925Y-259.085
X190.925Y-266.705
X191.05Y-273.635
X191.05Y-281.255
X192.24Y-312.455
X192.24Y-320.075
X193.465Y-259.085
X193.465Y-266.705
X193.59Y-273.635
X193.59Y-281.255
X194.78Y-312.455
X194.78Y-320.075
X195.88Y-98.3
X195.88Y-100.84
X195.88Y-103.38
X195.88Y-105.92
X195.88Y-108.46
X195.88Y-111.0
X195.88Y-113.54
X196.005Y-259.085
X196.005Y-266.705
X196.13Y-273.635
X196.13Y-281.255
X197.32Y-312.455
X197.32Y-320.075
X198.545Y-259.085
X198.545Y-266.705
X198.67Y-273.635
X198.67Y-281.255
X199.86Y-312.455
X199.86Y-320.075
X201.085Y-259.085
X201.085Y-266.705
X201.21Y-273.635
X201.21Y-281.255
X203.5Y-98.3
X203.5Y-100.84
X203.5Y-103.38
X203.5Y-105.92
X203.5Y-108.46
X203.5Y-111.0
X203.5Y-113.54
X203.625Y-259.085
X203.625Y-266.705
X203.75Y-273.635
X203.75Y-281.255
X205.375Y-145.0
X205.375Y-147.54
X205.375Y-150.08
X205.375Y-152.62
X205.375Y-155.16
X205.375Y-157.7
X205.375Y-160.24
X205.375Y-162.78
X205.375Y-165.32
X205.375Y-167.86
X205.375Y-170.4
X205.375Y-172.94
X205.375Y-175.48
X205.375Y-178.02
X206.165Y-259.085
X206.165Y-266.705
X206.29Y-273.635
X206.29Y-281.255
X206.425Y-229.755
X206.425Y-232.295
X206.425Y-234.835
X206.425Y-237.375
X206.425Y-239.915
X206.425Y-242.455
X206.425Y-244.995
X206.555Y-199.715
X206.555Y-202.255
X206.555Y-204.795
X206.555Y-207.335
X206.555Y-209.875
X206.555Y-212.415
X206.555Y-214.955
X212.88Y-98.25
X212.88Y-100.79
X212.88Y-103.33
X212.88Y-105.87
X212.88Y-108.41
X212.88Y-110.95
X212.88Y-113.49
X212.88Y-116.03
X212.88Y-118.57
X212.88Y-121.11
X214.045Y-229.755
X214.045Y-232.295
X214.045Y-234.835
X214.045Y-237.375
X214.045Y-239.915
X214.045Y-242.455
X214.045Y-244.995
X214.175Y-199.715
X214.175Y-202.255
X214.175Y-204.795
X214.175Y-207.335
X214.175Y-209.875
X214.175Y-212.415
X214.175Y-214.955
X220.5Y-98.25
X220.5Y-100.79
X220.5Y-103.33
X220.5Y-105.87
X220.5Y-108.41
X220.5Y-110.95
X220.5Y-113.49
X220.5Y-116.03
X220.5Y-118.57
X220.5Y-121.11
X220.615Y-145.0
X220.615Y-147.54
X220.615Y-150.08
X220.615Y-152.62
X220.615Y-155.16
X220.615Y-157.7
X220.615Y-160.24
X220.615Y-162.78
X220.615Y-165.32
X220.615Y-167.86
X220.615Y-170.4
X220.615Y-172.94
X220.615Y-175.48
X220.615Y-178.02
T4
X100.87Y-290.192
X103.41Y-290.192
X107.62Y-290.192
X110.16Y-290.192
X114.37Y-290.192
X115.175Y-98.455
X116.91Y-290.192
X117.715Y-98.455
X121.12Y-290.192
X121.94Y-98.455
X123.66Y-290.192
X124.48Y-98.455
X127.885Y-290.192
X128.675Y-98.455
X130.425Y-290.192
X131.215Y-98.455
X134.635Y-290.192
X135.425Y-98.455
X137.175Y-290.192
X137.965Y-98.455
X141.385Y-290.192
X142.175Y-98.455
X143.925Y-290.192
X144.715Y-98.455
X148.16Y-290.192
X148.925Y-98.455
X150.7Y-290.192
X151.465Y-98.455
X155.675Y-98.455
X158.215Y-98.455
X158.885Y-70.942
X161.425Y-70.942
X162.425Y-98.455
X164.41Y-290.205
X164.965Y-98.455
X165.635Y-70.942
X166.95Y-290.205
X168.175Y-70.942
X171.175Y-290.205
X172.385Y-70.942
X173.715Y-290.205
X174.925Y-70.942
X177.91Y-290.205
X179.135Y-70.942
X180.45Y-290.205
X181.675Y-70.942
X184.66Y-290.205
X185.91Y-70.942
X187.2Y-290.205
X188.45Y-70.942
X191.41Y-290.205
X192.675Y-70.942
X193.95Y-290.205
X195.215Y-70.942
X198.16Y-290.205
X199.41Y-70.942
X200.7Y-290.205
X201.95Y-70.942
X204.91Y-290.205
X206.175Y-70.942
X207.45Y-290.205
X208.715Y-70.942
X211.66Y-290.205
X214.2Y-290.205
T5
X101.75Y-322.0
X101.79Y-328.475
X101.79Y-334.975
X104.29Y-322.0
X104.33Y-328.475
X104.33Y-334.975
X145.315Y-333.455
X145.315Y-335.995
X147.855Y-333.455
X147.855Y-335.995
X150.395Y-333.455
X150.395Y-335.995
X152.935Y-333.455
X152.935Y-335.995
X155.475Y-333.455
X155.475Y-335.995
X158.015Y-333.455
X158.015Y-335.995
X160.555Y-333.455
X160.555Y-335.995
X163.095Y-333.455
X163.095Y-335.995
X165.635Y-333.455
X165.635Y-335.995
X168.175Y-333.455
X168.175Y-335.995
X195.315Y-333.455
X195.315Y-335.995
X197.855Y-333.455
X197.855Y-335.995
X200.395Y-333.455
X200.395Y-335.995
X202.935Y-333.455
X202.935Y-335.995
X205.475Y-333.455
X205.475Y-335.995
X208.015Y-333.455
X208.015Y-335.995
X210.555Y-333.455
X210.555Y-335.995
X213.095Y-333.455
X213.095Y-335.995
X215.635Y-333.455
X215.635Y-335.995
X218.175Y-333.455
X218.175Y-335.995
X228.96Y-98.17
X228.96Y-100.71
X228.96Y-103.25
X228.96Y-105.79
X228.96Y-108.33
X228.96Y-110.87
X228.96Y-113.41
X228.96Y-115.95
X228.96Y-118.49
X228.96Y-121.03
X231.5Y-98.17
X231.5Y-100.71
X231.5Y-103.25
X231.5Y-105.79
X231.5Y-108.33
X231.5Y-110.87
X231.5Y-113.41
X231.5Y-115.95
X231.5Y-118.49
X231.5Y-121.03
M30
