M48
; DRILL file {KiCad 8.0.2} date 2024-05-23T11:36:12+0200
; FORMAT={-:-/ absolute / metric / decimal}
; #@! TF.CreationDate,2024-05-23T11:36:12+02:00
; #@! TF.GenerationSoftware,Kicad,Pcbnew,8.0.2
; #@! TF.FileFunction,Plated,1,2,PTH
FMAT,2
METRIC
; #@! TA.AperFunction,Plated,PTH,ViaDrill
T1C0.300
; #@! TA.AperFunction,Plated,PTH,ComponentDrill
T2C0.700
; #@! TA.AperFunction,Plated,PTH,ComponentDrill
T3C0.800
; #@! TA.AperFunction,Plated,PTH,ComponentDrill
T4C0.900
; #@! TA.AperFunction,Plated,PTH,ComponentDrill
T5C1.000
%
G90
G05
T1
X40.0Y-177.5
X40.0Y-220.0
X40.0Y-271.25
X41.3Y-274.55
X42.5Y-217.25
X42.5Y-277.5
X42.575Y-210.5
X43.25Y-75.0
X43.75Y-148.75
X43.75Y-183.5
X43.805Y-223.12
X45.0Y-178.675
X45.0Y-208.75
X45.0Y-221.25
X45.2Y-261.0
X46.175Y-181.25
X46.25Y-202.75
X46.25Y-218.75
X46.3Y-150.125
X47.0Y-185.25
X47.5Y-203.925
X47.5Y-212.25
X47.625Y-159.125
X47.75Y-143.0
X48.5Y-91.75
X49.75Y-189.5
X50.484Y-129.146
X50.497Y-135.895
X50.499Y-131.845
X50.499Y-138.595
X50.5Y-82.25
X50.501Y-133.195
X50.502Y-137.245
X50.509Y-130.495
X50.521Y-134.545
X50.75Y-286.5
X50.75Y-297.5
X50.75Y-309.0
X51.25Y-232.75
X51.75Y-54.25
X53.75Y-65.25
X53.75Y-268.5
X54.169Y-129.169
X57.25Y-130.5
X58.25Y-191.75
X58.75Y-34.5
X58.75Y-142.25
X60.25Y-120.5
X60.254Y-131.842
X63.0Y-232.75
X63.25Y-128.75
X63.45Y-133.195
X64.25Y-226.0
X65.24Y-248.74
X66.25Y-255.25
X66.496Y-134.585
X68.25Y-175.8
X68.25Y-195.0
X68.75Y-150.0
X69.25Y-65.75
X69.496Y-135.835
X69.5Y-167.25
X69.5Y-196.5
X69.5Y-237.5
X69.75Y-204.75
X70.0Y-216.5
X70.75Y-161.5
X70.75Y-198.0
X72.0Y-265.25
X72.25Y-174.026
X72.25Y-152.75
X72.25Y-212.25
X72.265Y-172.676
X73.0Y-47.25
X73.5Y-52.5
X73.5Y-134.0
X73.5Y-171.5
X73.5Y-200.93
X74.25Y-215.75
X75.0Y-154.5
X75.0Y-170.75
X75.0Y-181.75
X76.0Y-30.25
X76.0Y-55.0
X77.04Y-277.75
X77.04Y-292.75
X77.04Y-308.425
X77.25Y-139.25
X78.25Y-232.5
X78.25Y-276.5
X78.29Y-291.5
X78.29Y-307.175
X78.75Y-202.75
X79.5Y-275.25
X79.54Y-290.25
X79.54Y-306.0
X79.75Y-226.25
X80.5Y-144.98
X80.75Y-274.0
X80.79Y-289.0
X80.79Y-304.75
X81.581Y-146.169
X82.0Y-82.25
X82.0Y-267.71
X82.04Y-282.75
X82.04Y-297.75
X82.25Y-227.425
X83.289Y-268.888
X83.29Y-281.5
X83.29Y-296.5
X83.75Y-233.5
X84.0Y-266.46
X84.5Y-271.0
X84.54Y-280.25
X84.54Y-295.25
X84.71Y-228.425
X85.25Y-188.5
X85.75Y-272.25
X85.79Y-294.0
X85.793Y-279.075
X86.5Y-64.0
X87.0Y-265.21
X88.25Y-120.5
X89.25Y-180.0
X90.0Y-201.5
X90.25Y-263.96
X91.25Y-200.75
X92.25Y-231.25
X92.5Y-189.75
X93.25Y-211.0
X93.5Y-53.5
X93.5Y-230.25
X94.25Y-221.0
X94.75Y-137.0
X95.0Y-72.075
X95.206Y-209.294
X95.35Y-200.85
X96.5Y-127.5
X97.5Y-199.675
X98.0Y-46.5
X99.0Y-30.75
X99.288Y-64.95
X100.874Y-64.876
X101.5Y-278.75
X102.25Y-294.0
X102.786Y-212.7
X104.0Y-263.275
X104.0Y-264.75
X104.104Y-261.929
X104.5Y-199.5
X104.75Y-132.0
X104.75Y-146.5
X104.75Y-195.0
X104.75Y-222.25
X104.821Y-125.075
X105.5Y-114.5
X105.55Y-74.5
X105.87Y-43.505
X106.0Y-126.25
X106.0Y-220.0
X106.039Y-131.6
X106.25Y-143.25
X106.734Y-123.5
X107.55Y-190.25
X107.75Y-127.5
X107.778Y-131.6
X108.75Y-228.345
X109.192Y-131.6
X109.25Y-128.75
X109.5Y-58.5
X110.75Y-82.25
X113.0Y-134.75
X113.5Y-183.75
X114.04Y-265.0
X114.04Y-280.0
X114.04Y-296.0
X115.25Y-237.5
X115.29Y-266.25
X115.29Y-281.25
X115.29Y-297.25
X116.54Y-267.5
X116.54Y-282.5
X116.54Y-298.5
X117.5Y-120.5
X117.79Y-269.5
X117.79Y-284.5
X117.79Y-300.5
X117.95Y-212.25
X119.04Y-272.0
X119.04Y-286.96
X119.04Y-303.0
X120.29Y-274.0
X120.29Y-288.96
X120.29Y-305.0
X121.5Y-227.909
X121.54Y-275.25
X121.54Y-290.21
X121.54Y-306.25
X121.625Y-220.96
X122.79Y-276.5
X122.79Y-291.46
X122.79Y-307.5
X123.5Y-138.75
X124.25Y-169.0
X124.836Y-227.895
X125.75Y-127.5
X126.5Y-130.25
X126.5Y-148.25
X127.25Y-46.75
X128.25Y-153.75
X129.25Y-183.0
X129.75Y-73.55
X130.75Y-270.25
X130.868Y-67.837
X130.925Y-72.25
X131.087Y-145.837
X131.5Y-165.0
X131.61Y-65.25
X132.5Y-43.75
X133.205Y-114.25
X133.5Y-54.5
X134.96Y-68.26
X135.909Y-58.821
X136.25Y-199.5
X136.387Y-68.025
X137.456Y-173.544
X137.5Y-237.5
X138.0Y-47.75
X139.25Y-67.125
X139.25Y-212.0
X140.25Y-293.75
X140.25Y-303.0
X140.25Y-311.25
X140.75Y-59.5
X140.75Y-82.25
X142.213Y-65.95
X142.5Y-270.25
X143.669Y-228.0
X143.75Y-127.75
X146.0Y-218.0
X146.675Y-48.825
X147.25Y-120.5
X147.5Y-192.5
X147.63Y-47.575
X148.0Y-129.5
X148.824Y-192.765
X149.5Y-233.75
X149.999Y-185.5
X150.0Y-301.5
X150.124Y-187.624
X150.25Y-206.5
X150.5Y-199.5
X151.75Y-198.0
X152.0Y-270.25
X152.875Y-58.125
X155.25Y-127.75
X155.25Y-216.75
X155.838Y-64.25
X156.25Y-191.75
X157.5Y-301.5
X158.5Y-202.75
X159.25Y-30.0
X160.25Y-65.95
X160.773Y-64.523
X161.963Y-126.0
X162.75Y-69.5
X162.75Y-214.75
X164.0Y-124.75
X164.25Y-114.0
X165.235Y-80.515
X166.75Y-304.75
X167.5Y-316.0
X168.5Y-276.5
X169.75Y-82.25
X170.0Y-275.25
X171.75Y-246.25
X172.25Y-30.0
X177.0Y-120.5
X178.0Y-231.25
X178.25Y-129.75
X178.25Y-241.0
X182.0Y-56.0
X182.25Y-41.75
X182.5Y-33.0
X185.0Y-61.25
X187.0Y-127.5
X187.856Y-62.444
X188.0Y-246.75
X189.25Y-164.5
X190.75Y-212.0
X191.25Y-280.5
X192.705Y-110.27
X193.0Y-173.0
X194.25Y-80.25
X197.05Y-305.75
X198.4Y-305.75
X199.0Y-288.0
X199.75Y-83.5
X199.75Y-305.75
X204.25Y-62.0
X205.5Y-166.825
X206.0Y-120.5
X206.25Y-34.0
X207.195Y-165.5
X207.5Y-218.25
X209.0Y-153.25
X212.0Y-152.0
X213.415Y-185.925
X214.75Y-66.75
X217.25Y-125.5
X217.25Y-196.0
X219.875Y-44.875
X220.83Y-43.92
X222.0Y-132.5
X222.75Y-164.5
X225.25Y-32.0
X225.75Y-196.0
X226.0Y-177.5
X226.0Y-217.25
X226.75Y-82.75
X226.75Y-101.75
X226.75Y-121.25
X228.05Y-75.0
X228.25Y-154.0
X228.25Y-178.75
X228.75Y-40.75
X230.25Y-206.0
X231.0Y-265.75
X231.0Y-291.25
X231.0Y-305.75
X236.595Y-264.25
T2
X49.32Y-248.0
X49.32Y-255.62
X56.07Y-248.0
X56.07Y-255.62
X62.82Y-248.0
X62.82Y-255.62
X63.982Y-42.802
X69.57Y-248.0
X69.57Y-255.62
X71.602Y-42.802
X76.32Y-248.0
X76.32Y-255.62
X83.07Y-247.94
X83.07Y-255.56
X89.06Y-33.38
X89.82Y-248.0
X89.82Y-255.62
X96.57Y-248.0
X96.57Y-255.62
X96.68Y-33.38
X101.235Y-195.123
X101.235Y-202.742
X103.32Y-248.0
X103.32Y-255.62
X110.07Y-248.0
X110.07Y-255.62
X112.735Y-195.123
X112.735Y-202.742
X113.502Y-149.827
X113.75Y-30.13
X113.75Y-34.38
X116.82Y-248.0
X116.82Y-255.62
X119.485Y-195.123
X119.485Y-202.742
X121.122Y-149.827
X121.37Y-30.13
X121.37Y-34.38
X123.57Y-248.0
X123.57Y-255.62
X126.235Y-195.123
X126.235Y-202.742
X130.32Y-248.0
X130.32Y-255.62
X132.985Y-195.123
X132.985Y-202.742
X135.0Y-140.25
X135.0Y-147.87
X137.07Y-248.0
X137.07Y-255.62
X139.735Y-195.123
X139.735Y-202.742
X141.75Y-140.25
X141.75Y-147.87
X143.82Y-248.0
X143.82Y-255.62
X146.475Y-290.74
X146.475Y-298.36
X148.5Y-140.25
X148.5Y-147.87
X150.57Y-248.0
X150.57Y-255.62
X153.225Y-290.74
X153.225Y-298.36
X155.25Y-140.25
X155.25Y-147.87
X159.975Y-290.74
X159.975Y-298.36
X162.0Y-140.25
X162.0Y-147.87
X164.75Y-33.19
X164.75Y-40.81
X166.725Y-290.74
X166.725Y-298.36
X168.75Y-140.25
X168.75Y-147.87
X173.475Y-290.74
X173.475Y-298.36
X175.5Y-140.25
X175.5Y-147.87
X177.475Y-33.0
X177.475Y-40.62
X180.225Y-290.74
X180.225Y-298.36
X182.25Y-140.25
X182.25Y-147.87
X186.345Y-231.0
X186.345Y-238.62
X186.975Y-290.74
X186.975Y-298.36
X189.0Y-140.25
X189.0Y-147.87
X193.095Y-231.0
X193.095Y-238.62
X193.725Y-290.74
X193.725Y-298.36
X195.455Y-40.445
X195.75Y-140.25
X195.75Y-147.87
X199.845Y-231.0
X199.845Y-238.62
X202.5Y-140.25
X202.5Y-147.87
X203.075Y-40.445
X206.595Y-230.94
X206.595Y-238.56
X209.25Y-140.25
X209.25Y-147.87
X210.44Y-40.5
X213.345Y-231.0
X213.345Y-238.62
X216.0Y-140.25
X216.0Y-147.87
X218.06Y-40.5
X220.095Y-231.0
X220.095Y-238.62
X226.845Y-231.0
X226.845Y-238.62
X233.595Y-231.0
X233.595Y-238.62
T3
X47.95Y-32.875
X47.95Y-35.415
X47.95Y-37.955
X47.95Y-40.495
X47.95Y-43.035
X47.95Y-45.575
X47.95Y-48.115
X48.69Y-69.75
X48.69Y-77.37
X50.8Y-147.0
X50.8Y-154.62
X50.875Y-175.8
X50.875Y-183.42
X50.96Y-161.37
X50.96Y-168.99
X50.96Y-200.93
X50.96Y-208.55
X50.96Y-215.5
X50.96Y-223.12
X51.23Y-69.75
X51.23Y-77.37
X52.375Y-90.2
X52.375Y-92.74
X52.375Y-95.28
X52.375Y-97.82
X52.375Y-100.36
X52.375Y-102.9
X52.375Y-105.44
X52.375Y-107.98
X52.375Y-110.52
X52.375Y-113.06
X52.375Y-115.6
X52.375Y-118.14
X52.375Y-120.68
X52.375Y-123.22
X53.34Y-147.0
X53.34Y-154.62
X53.415Y-175.8
X53.415Y-183.42
X53.5Y-161.37
X53.5Y-168.99
X53.5Y-200.93
X53.5Y-208.55
X53.5Y-215.5
X53.5Y-223.12
X53.77Y-69.75
X53.77Y-77.37
X55.57Y-32.875
X55.57Y-35.415
X55.57Y-37.955
X55.57Y-40.495
X55.57Y-43.035
X55.57Y-45.575
X55.57Y-48.115
X55.88Y-147.0
X55.88Y-154.62
X55.955Y-175.8
X55.955Y-183.42
X56.04Y-161.37
X56.04Y-168.99
X56.04Y-200.93
X56.04Y-208.55
X56.04Y-215.5
X56.04Y-223.12
X56.31Y-69.75
X56.31Y-77.37
X58.42Y-147.0
X58.42Y-154.62
X58.495Y-175.8
X58.495Y-183.42
X58.58Y-161.37
X58.58Y-168.99
X58.58Y-200.93
X58.58Y-208.55
X58.58Y-215.5
X58.58Y-223.12
X58.85Y-69.75
X58.85Y-77.37
X60.63Y-262.68
X60.63Y-265.22
X60.63Y-267.76
X60.63Y-270.3
X60.63Y-272.84
X60.63Y-275.38
X60.63Y-277.92
X60.63Y-280.46
X60.63Y-283.0
X60.63Y-285.54
X60.63Y-293.14
X60.63Y-295.68
X60.63Y-298.22
X60.63Y-300.76
X60.63Y-303.3
X60.63Y-305.84
X60.63Y-308.38
X60.63Y-310.92
X60.63Y-313.46
X60.63Y-316.0
X60.96Y-147.0
X60.96Y-154.62
X61.035Y-175.8
X61.035Y-183.42
X61.12Y-161.37
X61.12Y-168.99
X61.12Y-200.93
X61.12Y-208.55
X61.12Y-215.5
X61.12Y-223.12
X61.39Y-69.75
X61.39Y-77.37
X63.5Y-147.0
X63.5Y-154.62
X63.575Y-175.8
X63.575Y-183.42
X63.66Y-161.37
X63.66Y-168.99
X63.66Y-200.93
X63.66Y-208.55
X63.66Y-215.5
X63.66Y-223.12
X63.93Y-69.75
X63.93Y-77.37
X66.04Y-147.0
X66.04Y-154.62
X66.115Y-175.8
X66.115Y-183.42
X66.2Y-161.37
X66.2Y-168.99
X66.2Y-200.93
X66.2Y-208.55
X66.2Y-215.5
X66.2Y-223.12
X66.47Y-69.75
X66.47Y-77.37
X67.615Y-90.2
X67.615Y-92.74
X67.615Y-95.28
X67.615Y-97.82
X67.615Y-100.36
X67.615Y-102.9
X67.615Y-105.44
X67.615Y-107.98
X67.615Y-110.52
X67.615Y-113.06
X67.615Y-115.6
X67.615Y-118.14
X67.615Y-120.68
X67.615Y-123.22
X68.25Y-262.68
X68.25Y-265.22
X68.25Y-267.76
X68.25Y-270.3
X68.25Y-272.84
X68.25Y-275.38
X68.25Y-277.92
X68.25Y-280.46
X68.25Y-283.0
X68.25Y-285.54
X68.25Y-293.14
X68.25Y-295.68
X68.25Y-298.22
X68.25Y-300.76
X68.25Y-303.3
X68.25Y-305.84
X68.25Y-308.38
X68.25Y-310.92
X68.25Y-313.46
X68.25Y-316.0
X69.01Y-69.75
X69.01Y-77.37
X71.55Y-69.75
X71.55Y-77.37
X77.07Y-35.58
X77.07Y-38.12
X77.07Y-40.66
X77.07Y-43.2
X78.285Y-69.8
X78.285Y-77.42
X79.62Y-30.13
X80.01Y-133.63
X80.01Y-141.25
X80.825Y-69.8
X80.825Y-77.42
X82.115Y-90.16
X82.115Y-92.7
X82.115Y-95.24
X82.115Y-97.78
X82.115Y-100.32
X82.115Y-102.86
X82.115Y-105.4
X82.115Y-107.94
X82.115Y-110.48
X82.115Y-113.02
X82.115Y-115.56
X82.115Y-118.1
X82.115Y-120.64
X82.115Y-123.18
X82.12Y-30.13
X82.55Y-133.63
X82.55Y-141.25
X83.365Y-69.8
X83.365Y-77.42
X84.31Y-148.7
X84.31Y-151.24
X84.31Y-153.78
X84.31Y-156.32
X84.31Y-158.86
X84.31Y-161.4
X84.31Y-163.94
X84.31Y-166.48
X84.31Y-169.02
X84.31Y-171.56
X84.31Y-174.1
X84.31Y-176.64
X84.31Y-179.18
X84.31Y-181.72
X84.69Y-35.58
X84.69Y-38.12
X84.69Y-40.66
X84.69Y-43.2
X85.09Y-133.63
X85.09Y-141.25
X85.905Y-69.8
X85.905Y-77.42
X87.63Y-133.63
X87.63Y-141.25
X88.445Y-69.8
X88.445Y-77.42
X89.12Y-44.88
X90.17Y-133.63
X90.17Y-141.25
X90.985Y-69.8
X90.985Y-77.42
X91.62Y-39.38
X91.62Y-44.88
X92.71Y-133.63
X92.71Y-141.25
X93.525Y-69.8
X93.525Y-77.42
X94.12Y-39.38
X95.25Y-133.63
X95.25Y-141.25
X96.065Y-69.8
X96.065Y-77.42
X97.355Y-90.16
X97.355Y-92.7
X97.355Y-95.24
X97.355Y-97.78
X97.355Y-100.32
X97.355Y-102.86
X97.355Y-105.4
X97.355Y-107.94
X97.355Y-110.48
X97.355Y-113.02
X97.355Y-115.56
X97.355Y-118.1
X97.355Y-120.64
X97.355Y-123.18
X97.79Y-133.63
X97.79Y-141.25
X98.605Y-69.8
X98.605Y-77.42
X99.55Y-148.7
X99.55Y-151.24
X99.55Y-153.78
X99.55Y-156.32
X99.55Y-158.86
X99.55Y-161.4
X99.55Y-163.94
X99.55Y-166.48
X99.55Y-169.02
X99.55Y-171.56
X99.55Y-174.1
X99.55Y-176.64
X99.55Y-179.18
X99.55Y-181.72
X99.705Y-209.005
X99.705Y-216.625
X99.705Y-224.575
X99.705Y-232.195
X100.33Y-133.63
X100.33Y-141.25
X101.145Y-69.8
X101.145Y-77.42
X101.82Y-35.76
X101.82Y-38.3
X101.82Y-40.84
X101.82Y-43.38
X102.245Y-209.005
X102.245Y-216.625
X102.245Y-224.575
X102.245Y-232.195
X102.87Y-133.63
X102.87Y-141.25
X104.12Y-30.13
X104.785Y-209.005
X104.785Y-216.625
X104.785Y-224.575
X104.785Y-232.195
X106.62Y-30.13
X107.325Y-209.005
X107.325Y-216.625
X107.325Y-224.575
X107.325Y-232.195
X107.865Y-69.8
X107.865Y-77.42
X109.44Y-35.76
X109.44Y-38.3
X109.44Y-40.84
X109.44Y-43.38
X109.865Y-209.005
X109.865Y-216.625
X109.865Y-224.575
X109.865Y-232.195
X109.92Y-157.93
X109.92Y-165.55
X109.92Y-172.75
X109.92Y-180.37
X110.405Y-69.8
X110.405Y-77.42
X111.865Y-90.12
X111.865Y-92.66
X111.865Y-95.2
X111.865Y-97.74
X111.865Y-100.28
X111.865Y-102.82
X111.865Y-105.36
X111.865Y-107.9
X111.865Y-110.44
X111.865Y-112.98
X111.865Y-115.52
X111.865Y-118.06
X111.865Y-120.6
X111.865Y-123.14
X112.405Y-209.005
X112.405Y-216.625
X112.405Y-224.575
X112.405Y-232.195
X112.46Y-157.93
X112.46Y-165.55
X112.46Y-172.75
X112.46Y-180.37
X112.945Y-69.8
X112.945Y-77.42
X113.87Y-45.13
X114.71Y-55.88
X114.71Y-63.5
X114.945Y-209.005
X114.945Y-216.625
X114.945Y-224.575
X114.945Y-232.195
X115.0Y-157.93
X115.0Y-165.55
X115.0Y-172.75
X115.0Y-180.37
X115.485Y-69.8
X115.485Y-77.42
X116.37Y-40.88
X116.37Y-45.13
X117.0Y-313.5
X117.0Y-316.0
X117.25Y-55.88
X117.25Y-63.5
X117.485Y-209.005
X117.485Y-216.625
X117.485Y-224.575
X117.485Y-232.195
X117.54Y-157.93
X117.54Y-165.55
X117.54Y-172.75
X117.54Y-180.37
X118.025Y-69.8
X118.025Y-77.42
X118.87Y-40.88
X119.79Y-55.88
X119.79Y-63.5
X120.08Y-157.93
X120.08Y-165.55
X120.08Y-172.75
X120.08Y-180.37
X120.565Y-69.8
X120.565Y-77.42
X122.0Y-313.455
X122.0Y-315.955
X122.33Y-55.88
X122.33Y-63.5
X122.62Y-157.93
X122.62Y-165.55
X122.62Y-172.75
X122.62Y-180.37
X123.105Y-69.8
X123.105Y-77.42
X123.86Y-209.005
X123.86Y-216.625
X123.86Y-224.575
X123.86Y-232.195
X124.87Y-55.88
X124.87Y-63.5
X125.16Y-157.93
X125.16Y-165.55
X125.16Y-172.75
X125.16Y-180.37
X125.645Y-69.8
X125.645Y-77.42
X126.4Y-209.005
X126.4Y-216.625
X126.4Y-224.575
X126.4Y-232.195
X127.105Y-90.12
X127.105Y-92.66
X127.105Y-95.2
X127.105Y-97.74
X127.105Y-100.28
X127.105Y-102.82
X127.105Y-105.36
X127.105Y-107.9
X127.105Y-110.44
X127.105Y-112.98
X127.105Y-115.52
X127.105Y-118.06
X127.105Y-120.6
X127.105Y-123.14
X127.41Y-55.88
X127.41Y-63.5
X127.83Y-34.59
X127.83Y-37.13
X127.83Y-39.67
X128.185Y-69.8
X128.185Y-77.42
X128.94Y-209.005
X128.94Y-216.625
X128.94Y-224.575
X128.94Y-232.195
X129.95Y-55.88
X129.95Y-63.5
X130.725Y-69.8
X130.725Y-77.42
X131.48Y-209.005
X131.48Y-216.625
X131.48Y-224.575
X131.48Y-232.195
X134.02Y-209.005
X134.02Y-216.625
X134.02Y-224.575
X134.02Y-232.195
X134.92Y-180.0
X135.46Y-55.88
X135.46Y-63.5
X135.875Y-33.18
X135.875Y-40.8
X136.26Y-158.0
X136.26Y-165.62
X136.56Y-209.005
X136.56Y-216.625
X136.56Y-224.575
X136.56Y-232.195
X137.46Y-180.0
X137.615Y-69.8
X137.615Y-77.42
X138.0Y-55.88
X138.0Y-63.5
X138.415Y-33.18
X138.415Y-40.8
X138.8Y-158.0
X138.8Y-165.62
X139.1Y-209.005
X139.1Y-216.625
X139.1Y-224.575
X139.1Y-232.195
X140.0Y-180.0
X140.155Y-69.8
X140.155Y-77.42
X140.54Y-55.88
X140.54Y-63.5
X140.955Y-33.18
X140.955Y-40.8
X141.34Y-158.0
X141.34Y-165.62
X141.615Y-90.08
X141.615Y-92.62
X141.615Y-95.16
X141.615Y-97.7
X141.615Y-100.24
X141.615Y-102.78
X141.615Y-105.32
X141.615Y-107.86
X141.615Y-110.4
X141.615Y-112.94
X141.615Y-115.48
X141.615Y-118.02
X141.615Y-120.56
X141.615Y-123.1
X142.695Y-69.8
X142.695Y-77.42
X143.08Y-55.88
X143.08Y-63.5
X143.495Y-33.18
X143.495Y-40.8
X143.88Y-158.0
X143.88Y-165.62
X145.235Y-69.8
X145.235Y-77.42
X145.62Y-55.88
X145.62Y-63.5
X146.035Y-33.18
X146.035Y-40.8
X146.42Y-158.0
X146.42Y-165.62
X147.775Y-69.8
X147.775Y-77.42
X148.125Y-307.18
X148.125Y-314.8
X148.16Y-55.88
X148.16Y-63.5
X148.575Y-33.18
X148.575Y-40.8
X148.96Y-158.0
X148.96Y-165.62
X150.315Y-69.8
X150.315Y-77.42
X150.665Y-307.18
X150.665Y-314.8
X150.7Y-55.88
X150.7Y-63.5
X151.115Y-33.18
X151.115Y-40.8
X151.5Y-158.0
X151.5Y-165.62
X152.855Y-69.8
X152.855Y-77.42
X153.205Y-307.18
X153.205Y-314.8
X154.04Y-158.0
X154.04Y-165.62
X155.395Y-69.8
X155.395Y-77.42
X155.745Y-307.18
X155.745Y-314.8
X155.84Y-172.75
X155.84Y-187.99
X156.58Y-158.0
X156.58Y-165.62
X156.855Y-90.08
X156.855Y-92.62
X156.855Y-95.16
X156.855Y-97.7
X156.855Y-100.24
X156.855Y-102.78
X156.855Y-105.32
X156.855Y-107.86
X156.855Y-110.4
X156.855Y-112.94
X156.855Y-115.48
X156.855Y-118.02
X156.855Y-120.56
X156.855Y-123.1
X157.935Y-69.8
X157.935Y-77.42
X158.285Y-307.18
X158.285Y-314.8
X158.38Y-172.75
X158.38Y-187.99
X159.12Y-158.0
X159.12Y-165.62
X160.475Y-69.8
X160.475Y-77.42
X160.825Y-307.18
X160.825Y-314.8
X160.92Y-172.75
X160.92Y-187.99
X162.81Y-256.75
X162.81Y-271.99
X163.365Y-307.18
X163.365Y-314.8
X163.46Y-172.75
X163.46Y-187.99
X164.22Y-202.115
X164.22Y-209.735
X164.225Y-157.95
X164.225Y-165.57
X165.35Y-256.75
X165.35Y-271.99
X166.0Y-172.75
X166.0Y-187.99
X166.76Y-202.115
X166.76Y-209.735
X166.765Y-157.95
X166.765Y-165.57
X167.285Y-69.8
X167.285Y-77.42
X167.89Y-256.75
X167.89Y-271.99
X168.54Y-172.75
X168.54Y-187.99
X169.3Y-202.115
X169.3Y-209.735
X169.305Y-157.95
X169.305Y-165.57
X169.825Y-69.8
X169.825Y-77.42
X170.43Y-256.75
X170.43Y-271.99
X171.08Y-172.75
X171.08Y-187.99
X171.365Y-89.95
X171.365Y-92.49
X171.365Y-95.03
X171.365Y-97.57
X171.365Y-100.11
X171.365Y-102.65
X171.365Y-105.19
X171.365Y-107.73
X171.365Y-110.27
X171.365Y-112.81
X171.365Y-115.35
X171.365Y-117.89
X171.365Y-120.43
X171.365Y-122.97
X171.84Y-202.115
X171.84Y-209.735
X171.845Y-157.95
X171.845Y-165.57
X172.365Y-69.8
X172.365Y-77.42
X172.97Y-256.75
X172.97Y-271.99
X173.62Y-172.75
X173.62Y-187.99
X174.38Y-202.115
X174.38Y-209.735
X174.385Y-157.95
X174.385Y-165.57
X174.905Y-69.8
X174.905Y-77.42
X175.51Y-256.75
X175.51Y-271.99
X176.16Y-172.75
X176.16Y-187.99
X176.92Y-202.115
X176.92Y-209.735
X176.925Y-157.95
X176.925Y-165.57
X177.445Y-69.8
X177.445Y-77.42
X178.05Y-256.75
X178.05Y-271.99
X178.7Y-172.75
X178.7Y-187.99
X179.46Y-202.115
X179.46Y-209.735
X179.465Y-157.95
X179.465Y-165.57
X179.985Y-69.8
X179.985Y-77.42
X180.59Y-256.75
X180.59Y-271.99
X181.24Y-172.75
X181.24Y-187.99
X182.0Y-202.115
X182.0Y-209.735
X182.005Y-157.95
X182.005Y-165.57
X182.525Y-69.8
X182.525Y-77.42
X183.13Y-256.75
X183.13Y-271.99
X183.78Y-172.75
X183.78Y-187.99
X184.54Y-202.115
X184.54Y-209.735
X185.065Y-69.8
X185.065Y-77.42
X185.67Y-256.75
X185.67Y-271.99
X186.32Y-172.75
X186.32Y-187.99
X186.605Y-89.95
X186.605Y-92.49
X186.605Y-95.03
X186.605Y-97.57
X186.605Y-100.11
X186.605Y-102.65
X186.605Y-105.19
X186.605Y-107.73
X186.605Y-110.27
X186.605Y-112.81
X186.605Y-115.35
X186.605Y-117.89
X186.605Y-120.43
X186.605Y-122.97
X187.075Y-47.98
X187.075Y-55.6
X187.08Y-202.115
X187.08Y-209.735
X187.605Y-69.8
X187.605Y-77.42
X188.21Y-256.75
X188.21Y-271.99
X188.86Y-172.75
X188.86Y-187.99
X189.615Y-47.98
X189.615Y-55.6
X190.145Y-69.8
X190.145Y-77.42
X190.75Y-256.75
X190.75Y-271.99
X192.155Y-47.98
X192.155Y-55.6
X193.29Y-256.75
X193.29Y-271.99
X194.695Y-47.98
X194.695Y-55.6
X195.015Y-202.055
X195.015Y-209.675
X195.83Y-256.75
X195.83Y-271.99
X196.735Y-69.86
X196.735Y-77.48
X197.0Y-172.865
X197.0Y-188.105
X197.235Y-47.98
X197.235Y-55.6
X197.555Y-202.055
X197.555Y-209.675
X199.275Y-69.86
X199.275Y-77.48
X199.54Y-172.865
X199.54Y-188.105
X199.775Y-47.98
X199.775Y-55.6
X200.095Y-202.055
X200.095Y-209.675
X200.775Y-90.12
X200.775Y-92.66
X200.775Y-95.2
X200.775Y-97.74
X200.775Y-100.28
X200.775Y-102.82
X200.775Y-105.36
X200.775Y-107.9
X200.775Y-110.44
X200.775Y-112.98
X200.775Y-115.52
X200.775Y-118.06
X200.775Y-120.6
X200.775Y-123.14
X201.815Y-69.86
X201.815Y-77.48
X202.08Y-172.865
X202.08Y-188.105
X202.315Y-47.98
X202.315Y-55.6
X202.635Y-202.055
X202.635Y-209.675
X203.17Y-307.38
X203.17Y-315.0
X203.22Y-281.75
X203.22Y-289.37
X204.355Y-69.86
X204.355Y-77.48
X204.62Y-172.865
X204.62Y-188.105
X205.175Y-202.055
X205.175Y-209.675
X205.71Y-307.38
X205.71Y-315.0
X205.76Y-281.75
X205.76Y-289.37
X206.895Y-69.86
X206.895Y-77.48
X207.16Y-172.865
X207.16Y-188.105
X207.715Y-202.055
X207.715Y-209.675
X208.25Y-307.38
X208.25Y-315.0
X208.3Y-281.75
X208.3Y-289.37
X209.435Y-69.86
X209.435Y-77.48
X209.7Y-172.865
X209.7Y-188.105
X210.255Y-202.055
X210.255Y-209.675
X210.79Y-307.38
X210.79Y-315.0
X210.84Y-281.75
X210.84Y-289.37
X211.975Y-69.86
X211.975Y-77.48
X212.24Y-172.865
X212.24Y-188.105
X212.795Y-202.055
X212.795Y-209.675
X213.33Y-307.38
X213.33Y-315.0
X213.38Y-281.75
X213.38Y-289.37
X214.515Y-69.86
X214.515Y-77.48
X214.78Y-172.865
X214.78Y-188.105
X215.335Y-202.055
X215.335Y-209.675
X215.87Y-307.38
X215.87Y-315.0
X215.92Y-281.75
X215.92Y-289.37
X216.015Y-90.12
X216.015Y-92.66
X216.015Y-95.2
X216.015Y-97.74
X216.015Y-100.28
X216.015Y-102.82
X216.015Y-105.36
X216.015Y-107.9
X216.015Y-110.44
X216.015Y-112.98
X216.015Y-115.52
X216.015Y-118.06
X216.015Y-120.6
X216.015Y-123.14
X217.055Y-69.86
X217.055Y-77.48
X217.32Y-172.865
X217.32Y-188.105
X217.875Y-202.055
X217.875Y-209.675
X218.41Y-307.38
X218.41Y-315.0
X218.46Y-281.75
X218.46Y-289.37
X219.595Y-69.86
X219.595Y-77.48
X219.86Y-172.865
X219.86Y-188.105
X220.95Y-307.38
X220.95Y-315.0
X221.0Y-281.75
X221.0Y-289.37
X222.4Y-172.865
X222.4Y-188.105
X223.49Y-307.38
X223.49Y-315.0
X223.54Y-281.75
X223.54Y-289.37
X224.94Y-172.865
X224.94Y-188.105
X226.03Y-307.38
X226.03Y-315.0
X226.08Y-281.75
X226.08Y-289.37
X227.48Y-172.865
X227.48Y-188.105
X230.02Y-172.865
X230.02Y-188.105
T4
X46.75Y-243.5
X49.29Y-243.5
X53.515Y-243.5
X56.055Y-243.5
X60.25Y-243.5
X62.79Y-243.5
X65.37Y-32.13
X65.37Y-38.13
X67.015Y-243.5
X69.555Y-243.5
X70.37Y-32.13
X70.37Y-38.13
X73.79Y-243.5
X76.33Y-243.5
X80.5Y-243.5
X83.04Y-243.5
X87.25Y-243.5
X89.79Y-243.5
X94.015Y-243.5
X96.555Y-243.5
X98.735Y-190.587
X100.765Y-243.5
X101.275Y-190.587
X103.305Y-243.5
X107.515Y-243.5
X110.055Y-243.5
X110.235Y-190.587
X112.775Y-190.587
X114.305Y-243.5
X114.578Y-139.077
X114.578Y-145.077
X116.845Y-243.5
X116.985Y-190.587
X119.525Y-190.587
X119.578Y-139.077
X119.578Y-145.077
X121.03Y-243.5
X123.57Y-243.5
X123.735Y-190.587
X126.275Y-190.587
X127.78Y-243.5
X130.32Y-243.5
X130.485Y-190.587
X132.46Y-135.75
X133.025Y-190.587
X134.515Y-243.5
X135.0Y-135.75
X137.055Y-243.5
X137.235Y-190.587
X139.225Y-135.75
X139.775Y-190.587
X141.265Y-243.5
X141.765Y-135.75
X143.805Y-243.5
X143.95Y-286.24
X145.975Y-135.75
X146.49Y-286.24
X148.055Y-243.5
X148.515Y-135.75
X150.595Y-243.5
X150.685Y-286.24
X152.71Y-135.75
X153.225Y-286.24
X155.25Y-135.75
X157.45Y-286.24
X157.71Y-36.75
X159.46Y-135.75
X159.99Y-286.24
X160.25Y-36.75
X162.0Y-135.75
X164.185Y-286.24
X166.21Y-135.75
X166.725Y-286.24
X168.75Y-135.75
X170.225Y-36.75
X170.935Y-286.24
X172.765Y-36.75
X172.96Y-135.75
X173.475Y-286.24
X175.5Y-135.75
X177.685Y-286.24
X179.725Y-135.75
X180.225Y-286.24
X182.265Y-135.75
X183.805Y-226.5
X184.45Y-286.24
X186.345Y-226.5
X186.46Y-135.75
X186.99Y-286.24
X189.0Y-135.75
X190.57Y-226.5
X191.225Y-286.25
X193.11Y-226.5
X193.21Y-135.75
X193.765Y-286.25
X195.75Y-135.75
X196.5Y-30.0
X196.5Y-36.0
X197.305Y-226.5
X199.845Y-226.5
X199.96Y-135.75
X201.5Y-30.0
X201.5Y-36.0
X202.5Y-135.75
X204.055Y-226.5
X206.595Y-226.5
X206.71Y-135.75
X209.25Y-135.75
X210.805Y-226.5
X211.827Y-30.077
X211.827Y-36.078
X213.345Y-226.5
X213.46Y-135.75
X216.0Y-135.75
X216.827Y-30.077
X216.827Y-36.078
X217.555Y-226.5
X220.095Y-226.5
X224.32Y-226.5
X226.86Y-226.5
X231.055Y-226.5
X233.595Y-226.5
T5
X51.13Y-58.46
X51.13Y-61.0
X53.67Y-58.46
X53.67Y-61.0
X56.21Y-58.46
X56.21Y-61.0
X58.75Y-58.46
X58.75Y-61.0
X61.29Y-58.46
X61.29Y-61.0
X63.83Y-58.46
X63.83Y-61.0
X66.37Y-58.46
X66.37Y-61.0
X68.91Y-58.46
X68.91Y-61.0
X71.45Y-58.46
X71.45Y-61.0
X73.99Y-58.46
X73.99Y-61.0
X77.09Y-220.0
X77.18Y-212.0
X79.63Y-220.0
X79.72Y-212.0
X82.17Y-220.0
X82.26Y-212.0
X83.46Y-58.5
X83.46Y-61.04
X84.71Y-220.0
X84.8Y-212.0
X86.0Y-58.5
X86.0Y-61.04
X87.25Y-220.0
X87.34Y-212.0
X88.47Y-300.46
X88.47Y-303.0
X88.54Y-58.5
X88.54Y-61.04
X88.55Y-269.46
X88.55Y-272.0
X88.55Y-284.46
X88.55Y-287.0
X91.01Y-300.46
X91.01Y-303.0
X91.08Y-58.5
X91.08Y-61.04
X91.09Y-269.46
X91.09Y-272.0
X91.09Y-284.46
X91.09Y-287.0
X93.55Y-300.46
X93.55Y-303.0
X93.62Y-58.5
X93.62Y-61.04
X93.63Y-269.46
X93.63Y-272.0
X93.63Y-284.46
X93.63Y-287.0
X96.09Y-300.46
X96.09Y-303.0
X96.16Y-58.5
X96.16Y-61.04
X96.17Y-269.46
X96.17Y-272.0
X96.17Y-284.46
X96.17Y-287.0
X98.63Y-300.46
X98.63Y-303.0
X98.7Y-58.5
X98.7Y-61.04
X98.71Y-269.46
X98.71Y-272.0
X98.71Y-284.46
X98.71Y-287.0
X101.17Y-300.46
X101.17Y-303.0
X101.24Y-58.5
X101.24Y-61.04
X101.25Y-269.46
X101.25Y-272.0
X101.25Y-284.46
X101.25Y-287.0
X103.71Y-300.46
X103.71Y-303.0
X103.78Y-58.5
X103.78Y-61.04
X103.79Y-269.46
X103.79Y-272.0
X103.79Y-284.46
X103.79Y-287.0
X106.25Y-300.46
X106.25Y-303.0
X106.32Y-58.5
X106.32Y-61.04
X106.33Y-269.46
X106.33Y-272.0
X106.33Y-284.46
X106.33Y-287.0
X108.79Y-300.46
X108.79Y-303.0
X108.87Y-269.46
X108.87Y-272.0
X108.87Y-284.46
X108.87Y-287.0
X110.25Y-313.68
X110.25Y-316.22
X111.33Y-300.46
X111.33Y-303.0
X111.41Y-269.46
X111.41Y-272.0
X111.41Y-284.46
X111.41Y-287.0
X131.67Y-293.75
X131.67Y-301.25
X131.685Y-286.25
X131.685Y-308.75
X131.71Y-316.25
X134.21Y-293.75
X134.21Y-301.25
X134.225Y-286.25
X134.225Y-308.75
X134.25Y-316.25
X157.445Y-58.57
X157.445Y-61.11
X159.985Y-58.57
X159.985Y-61.11
X162.525Y-58.57
X162.525Y-61.11
X165.065Y-58.57
X165.065Y-61.11
X167.605Y-58.57
X167.605Y-61.11
X170.145Y-58.57
X170.145Y-61.11
X170.64Y-304.42
X170.64Y-306.96
X170.64Y-314.96
X170.64Y-317.5
X172.685Y-58.57
X172.685Y-61.11
X173.18Y-304.42
X173.18Y-306.96
X173.18Y-314.96
X173.18Y-317.5
X175.225Y-58.57
X175.225Y-61.11
X175.72Y-304.42
X175.72Y-306.96
X175.72Y-314.96
X175.72Y-317.5
X177.765Y-58.57
X177.765Y-61.11
X178.26Y-304.42
X178.26Y-306.96
X178.26Y-314.96
X178.26Y-317.5
X180.305Y-58.57
X180.305Y-61.11
X180.8Y-304.42
X180.8Y-306.96
X180.8Y-314.96
X180.8Y-317.5
X183.34Y-304.42
X183.34Y-306.96
X183.34Y-314.96
X183.34Y-317.5
X185.88Y-304.42
X185.88Y-306.96
X185.88Y-314.96
X185.88Y-317.5
X187.5Y-32.0
X187.5Y-34.54
X188.42Y-304.42
X188.42Y-306.96
X188.42Y-314.96
X188.42Y-317.5
X190.96Y-304.42
X190.96Y-306.96
X190.96Y-314.96
X190.96Y-317.5
X193.13Y-160.5
X193.13Y-163.04
X193.5Y-304.42
X193.5Y-306.96
X193.5Y-314.96
X193.5Y-317.5
X195.67Y-160.5
X195.67Y-163.04
X198.21Y-160.5
X198.21Y-163.04
X200.75Y-160.5
X200.75Y-163.04
X203.13Y-257.5
X203.13Y-260.04
X203.14Y-246.21
X203.14Y-248.75
X203.14Y-268.75
X203.14Y-271.29
X203.29Y-160.5
X203.29Y-163.04
X205.67Y-257.5
X205.67Y-260.04
X205.68Y-246.21
X205.68Y-248.75
X205.68Y-268.75
X205.68Y-271.29
X205.83Y-160.5
X205.83Y-163.04
X208.21Y-257.5
X208.21Y-260.04
X208.22Y-246.21
X208.22Y-248.75
X208.22Y-268.75
X208.22Y-271.29
X208.37Y-160.5
X208.37Y-163.04
X209.115Y-48.73
X209.115Y-56.98
X210.75Y-257.5
X210.75Y-260.04
X210.76Y-246.21
X210.76Y-248.75
X210.76Y-268.75
X210.76Y-271.29
X210.91Y-160.5
X210.91Y-163.04
X211.655Y-48.73
X211.655Y-56.98
X213.29Y-257.5
X213.29Y-260.04
X213.3Y-246.21
X213.3Y-248.75
X213.3Y-268.75
X213.3Y-271.29
X213.45Y-160.5
X213.45Y-163.04
X214.195Y-48.73
X214.195Y-56.98
X215.83Y-257.5
X215.83Y-260.04
X215.84Y-246.21
X215.84Y-248.75
X215.84Y-268.75
X215.84Y-271.29
X215.99Y-160.5
X215.99Y-163.04
X216.735Y-48.73
X216.735Y-56.98
X218.37Y-257.5
X218.37Y-260.04
X218.38Y-246.21
X218.38Y-248.75
X218.38Y-268.75
X218.38Y-271.29
X219.275Y-48.73
X219.275Y-56.98
X220.91Y-257.5
X220.91Y-260.04
X220.92Y-246.21
X220.92Y-248.75
X220.92Y-268.75
X220.92Y-271.29
X223.45Y-257.5
X223.45Y-260.04
X223.46Y-246.21
X223.46Y-248.75
X223.46Y-268.75
X223.46Y-271.29
X225.99Y-257.5
X225.99Y-260.04
X226.0Y-246.21
X226.0Y-248.75
X226.0Y-268.75
X226.0Y-271.29
M30
